  0
SECTION
  2
HEADER
  9
$ACADVER
  1
AC1024
  9
$ACADMAINTVER
 70
     6
  9
$DWGCODEPAGE
  3
UNDEFINED
  9
$INSBASE
 10
0.0
 20
0.0
 30
0.0
  9
$EXTMIN
 10
1.000000000000000E+20
 20
1.000000000000000E+20
 30
1.000000000000000E+20
  9
$EXTMAX
 10
-1.000000000000000E+20
 20
-1.000000000000000E+20
 30
-1.000000000000000E+20
  9
$LIMMIN
 10
0.0
 20
0.0
  9
$LIMMAX
 10
12.0
 20
9.0
  9
$ORTHOMODE
 70
     0
  9
$REGENMODE
 70
     1
  9
$FILLMODE
 70
     1
  9
$QTEXTMODE
 70
     0
  9
$MIRRTEXT
 70
     1
  9
$LTSCALE
 40
1.0
  9
$ATTMODE
 70
     1
  9
$TEXTSIZE
 40
0.2
  9
$TRACEWID
 40
0.05
  9
$TEXTSTYLE
  7
Standard
  9
$CLAYER
  8
0
  9
$CELTYPE
  6
ByLayer
  9
$CECOLOR
 62
   256
  9
$CELTSCALE
 40
1.0
  9
$DISPSILH
 70
     0
  9
$DIMSCALE
 40
1.0
  9
$DIMASZ
 40
0.18
  9
$DIMEXO
 40
0.0625
  9
$DIMDLI
 40
0.38
  9
$DIMRND
 40
0.0
  9
$DIMDLE
 40
0.0
  9
$DIMEXE
 40
0.18
  9
$DIMTP
 40
0.0
  9
$DIMTM
 40
0.0
  9
$DIMTXT
 40
0.18
  9
$DIMCEN
 40
0.09
  9
$DIMTSZ
 40
0.0
  9
$DIMTOL
 70
     0
  9
$DIMLIM
 70
     0
  9
$DIMTIH
 70
     1
  9
$DIMTOH
 70
     1
  9
$DIMSE1
 70
     0
  9
$DIMSE2
 70
     0
  9
$DIMTAD
 70
     0
  9
$DIMZIN
 70
     0
  9
$DIMBLK
  1

  9
$DIMASO
 70
     1
  9
$DIMSHO
 70
     1
  9
$DIMPOST
  1

  9
$DIMAPOST
  1

  9
$DIMALT
 70
     0
  9
$DIMALTD
 70
     2
  9
$DIMALTF
 40
25.4
  9
$DIMLFAC
 40
1.0
  9
$DIMTOFL
 70
     0
  9
$DIMTVP
 40
0.0
  9
$DIMTIX
 70
     0
  9
$DIMSOXD
 70
     0
  9
$DIMSAH
 70
     0
  9
$DIMBLK1
  1

  9
$DIMBLK2
  1

  9
$DIMSTYLE
  2
Standard
  9
$DIMCLRD
 70
     0
  9
$DIMCLRE
 70
     0
  9
$DIMCLRT
 70
     0
  9
$DIMTFAC
 40
1.0
  9
$DIMGAP
 40
0.09
  9
$DIMJUST
 70
     0
  9
$DIMSD1
 70
     0
  9
$DIMSD2
 70
     0
  9
$DIMTOLJ
 70
     1
  9
$DIMTZIN
 70
     0
  9
$DIMALTZ
 70
     0
  9
$DIMALTTZ
 70
     0
  9
$DIMUPT
 70
     0
  9
$DIMDEC
 70
     4
  9
$DIMTDEC
 70
     4
  9
$DIMALTU
 70
     2
  9
$DIMALTTD
 70
     2
  9
$DIMTXSTY
  7
Standard
  9
$DIMAUNIT
 70
     0
  9
$DIMADEC
 70
     0
  9
$DIMALTRND
 40
0.0
  9
$DIMAZIN
 70
     0
  9
$DIMDSEP
 70
    46
  9
$DIMATFIT
 70
     3
  9
$DIMFRAC
 70
     0
  9
$DIMLDRBLK
  1

  9
$DIMLUNIT
 70
     2
  9
$DIMLWD
 70
    -2
  9
$DIMLWE
 70
    -2
  9
$DIMTMOVE
 70
     0
  9
$DIMFXL
 40
1.0
  9
$DIMFXLON
 70
     0
  9
$DIMJOGANG
 40
0.7853981633974483
  9
$DIMTFILL
 70
     0
  9
$DIMTFILLCLR
 70
     0
  9
$DIMARCSYM
 70
     0
  9
$DIMLTYPE
  6

  9
$DIMLTEX1
  6

  9
$DIMLTEX2
  6

  9
$DIMTXTDIRECTION
 70
     0
  9
$LUNITS
 70
     2
  9
$LUPREC
 70
     4
  9
$SKETCHINC
 40
0.1
  9
$FILLETRAD
 40
0.5
  9
$AUNITS
 70
     0
  9
$AUPREC
 70
     0
  9
$MENU
  1
.
  9
$ELEVATION
 40
0.0
  9
$PELEVATION
 40
0.0
  9
$THICKNESS
 40
0.0
  9
$LIMCHECK
 70
     0
  9
$CHAMFERA
 40
0.5
  9
$CHAMFERB
 40
0.5
  9
$CHAMFERC
 40
1.0
  9
$CHAMFERD
 40
0.0
  9
$SKPOLY
 70
     0
  9
$TDCREATE
 40
2458072.537847222
  9
$TDUCREATE
 40
2458072.746180556
  9
$TDUPDATE
 40
2458072.537847222
  9
$TDUUPDATE
 40
2458072.746180556
  9
$TDINDWG
 40
0.0000000116
  9
$TDUSRTIMER
 40
0.0000000116
  9
$USRTIMER
 70
     1
  9
$ANGBASE
 50
0.0
  9
$ANGDIR
 70
     0
  9
$PDMODE
 70
     0
  9
$PDSIZE
 40
0.0
  9
$PLINEWID
 40
0.0
  9
$SPLFRAME
 70
     0
  9
$SPLINETYPE
 70
     6
  9
$SPLINESEGS
 70
     8
  9
$HANDSEED
  5
BA
  9
$SURFTAB1
 70
     6
  9
$SURFTAB2
 70
     6
  9
$SURFTYPE
 70
     6
  9
$SURFU
 70
     6
  9
$SURFV
 70
     6
  9
$UCSBASE
  2

  9
$UCSNAME
  2

  9
$UCSORG
 10
0.0
 20
0.0
 30
0.0
  9
$UCSXDIR
 10
1.0
 20
0.0
 30
0.0
  9
$UCSYDIR
 10
0.0
 20
1.0
 30
0.0
  9
$UCSORTHOREF
  2

  9
$UCSORTHOVIEW
 70
     0
  9
$UCSORGTOP
 10
0.0
 20
0.0
 30
0.0
  9
$UCSORGBOTTOM
 10
0.0
 20
0.0
 30
0.0
  9
$UCSORGLEFT
 10
0.0
 20
0.0
 30
0.0
  9
$UCSORGRIGHT
 10
0.0
 20
0.0
 30
0.0
  9
$UCSORGFRONT
 10
0.0
 20
0.0
 30
0.0
  9
$UCSORGBACK
 10
0.0
 20
0.0
 30
0.0
  9
$PUCSBASE
  2

  9
$PUCSNAME
  2

  9
$PUCSORG
 10
0.0
 20
0.0
 30
0.0
  9
$PUCSXDIR
 10
1.0
 20
0.0
 30
0.0
  9
$PUCSYDIR
 10
0.0
 20
1.0
 30
0.0
  9
$PUCSORTHOREF
  2

  9
$PUCSORTHOVIEW
 70
     0
  9
$PUCSORGTOP
 10
0.0
 20
0.0
 30
0.0
  9
$PUCSORGBOTTOM
 10
0.0
 20
0.0
 30
0.0
  9
$PUCSORGLEFT
 10
0.0
 20
0.0
 30
0.0
  9
$PUCSORGRIGHT
 10
0.0
 20
0.0
 30
0.0
  9
$PUCSORGFRONT
 10
0.0
 20
0.0
 30
0.0
  9
$PUCSORGBACK
 10
0.0
 20
0.0
 30
0.0
  9
$USERI1
 70
     0
  9
$USERI2
 70
     0
  9
$USERI3
 70
     0
  9
$USERI4
 70
     0
  9
$USERI5
 70
     0
  9
$USERR1
 40
0.0
  9
$USERR2
 40
0.0
  9
$USERR3
 40
0.0
  9
$USERR4
 40
0.0
  9
$USERR5
 40
0.0
  9
$WORLDVIEW
 70
     1
  9
$SHADEDGE
 70
     3
  9
$SHADEDIF
 70
    70
  9
$TILEMODE
 70
     1
  9
$MAXACTVP
 70
    64
  9
$PINSBASE
 10
0.0
 20
0.0
 30
0.0
  9
$PLIMCHECK
 70
     0
  9
$PEXTMIN
 10
1.000000000000000E+20
 20
1.000000000000000E+20
 30
1.000000000000000E+20
  9
$PEXTMAX
 10
-1.000000000000000E+20
 20
-1.000000000000000E+20
 30
-1.000000000000000E+20
  9
$PLIMMIN
 10
0.0
 20
0.0
  9
$PLIMMAX
 10
12.0
 20
9.0
  9
$UNITMODE
 70
     0
  9
$VISRETAIN
 70
     1
  9
$PLINEGEN
 70
     0
  9
$PSLTSCALE
 70
     1
  9
$TREEDEPTH
 70
  3020
  9
$CMLSTYLE
  2
Standard
  9
$CMLJUST
 70
     0
  9
$CMLSCALE
 40
1.0
  9
$PROXYGRAPHICS
 70
     1
  9
$MEASUREMENT
 70
     0
  9
$CELWEIGHT
370
    -1
  9
$ENDCAPS
280
     0
  9
$JOINSTYLE
280
     0
  9
$LWDISPLAY
290
     1
  9
$INSUNITS
 70
     1
  9
$HYPERLINKBASE
  1

  9
$STYLESHEET
  1

  9
$XEDIT
290
     1
  9
$CEPSNTYPE
380
     0
  9
$PSTYLEMODE
290
     1
  9
$FINGERPRINTGUID
  2
{518034B4-44BA-BB71-A748-51B6103DED2B}
  9
$VERSIONGUID
  2
{FAEB1C32-E019-11D5-929B-00C0DF256EC4}
  9
$EXTNAMES
290
     1
  9
$PSVPSCALE
 40
0.0
  9
$OLESTARTUP
290
     0
  9
$SORTENTS
280
   127
  9
$INDEXCTL
280
     0
  9
$HIDETEXT
280
     1
  9
$XCLIPFRAME
280
     2
  9
$HALOGAP
280
     0
  9
$OBSCOLOR
 70
   257
  9
$OBSLTYPE
280
     0
  9
$INTERSECTIONDISPLAY
280
     0
  9
$INTERSECTIONCOLOR
 70
   257
  9
$DIMASSOC
280
     2
  9
$PROJECTNAME
  1

  9
$CAMERADISPLAY
290
     0
  9
$LENSLENGTH
 40
50.0
  9
$CAMERAHEIGHT
 40
0.0
  9
$STEPSPERSEC
 40
2.0
  9
$STEPSIZE
 40
6.0
  9
$3DDWFPREC
 40
2.0
  9
$PSOLWIDTH
 40
0.25
  9
$PSOLHEIGHT
 40
4.0
  9
$LOFTANG1
 40
1.570796326794897
  9
$LOFTANG2
 40
1.570796326794897
  9
$LOFTMAG1
 40
0.0
  9
$LOFTMAG2
 40
0.0
  9
$LOFTPARAM
 70
     7
  9
$LOFTNORMALS
280
     1
  9
$LATITUDE
 40
37.795
  9
$LONGITUDE
 40
-122.394
  9
$NORTHDIRECTION
 40
0.0
  9
$TIMEZONE
 70
 -8000
  9
$LIGHTGLYPHDISPLAY
280
     1
  9
$TILEMODELIGHTSYNCH
280
     1
  9
$CMATERIAL
347
3C
  9
$SOLIDHIST
280
     1
  9
$SHOWHIST
280
     1
  9
$DWFFRAME
280
     2
  9
$DGNFRAME
280
     2
  9
$REALWORLDSCALE
290
     1
  9
$INTERFERECOLOR
 62
   256
  9
$CSHADOW
280
     0
  9
$SHADOWPLANELOCATION
 40
0.0
  0
ENDSEC
  0
SECTION
  2
CLASSES
  0
CLASS
  1
ACDBDICTIONARYWDFLT
  2
AcDbDictionaryWithDefault
  3
ObjectDBX Classes
 90
        0
 91
        4
280
     0
281
     0
  0
CLASS
  1
VISUALSTYLE
  2
AcDbVisualStyle
  3
ObjectDBX Classes
 90
     4095
 91
        4
280
     0
281
     0
  0
CLASS
  1
MATERIAL
  2
AcDbMaterial
  3
ObjectDBX Classes
 90
     1153
 91
        4
280
     0
281
     0
  0
CLASS
  1
SUN
  2
AcDbSun
  3
SCENEOE
 90
     1024
 91
        4
280
     0
281
     0
  0
ENDSEC
  0
SECTION
  2
TABLES
  0
TABLE
  2
VPORT
  5
8
330
0
100
AcDbSymbolTable
 70
     1
  0
VPORT
  5
29
330
8
100
AcDbSymbolTableRecord
100
AcDbViewportTableRecord
  2
*Active
 70
     0
 10
0.0
 20
0.0
 11
1.0
 21
1.0
 12
0.0
 22
0.0
 13
0.0
 23
0.0
 14
0.5
 24
0.5
 15
0.5
 25
0.5
 16
0.0
 26
0.0
 36
1.0
 17
3.0
 27
3.0
 37
0.0
 40
6.0
 41
1.0
 42
50.0
 43
0.0
 44
0.0
 50
0.0
 51
0.0
 71
     0
 72
   100
 73
     1
 74
     3
 75
     0
 76
     0
 77
     0
 78
     0
281
     0
 65
     1
110
0.0
120
0.0
130
0.0
111
1.0
121
0.0
131
0.0
112
0.0
122
1.0
132
0.0
 79
     0
146
0.0
 60
     3
 61
     5
292
     1
282
     1
141
0.0
142
0.0
 63
   250
361
3F
  0
ENDTAB
  0
TABLE
  2
LTYPE
  5
5
330
0
100
AcDbSymbolTable
 70
     1
  0
LTYPE
  5
14
330
5
100
AcDbSymbolTableRecord
100
AcDbLinetypeTableRecord
  2
ByBlock
 70
     0
  3

 72
    65
 73
     0
 40
0.0
  0
LTYPE
  5
15
330
5
100
AcDbSymbolTableRecord
100
AcDbLinetypeTableRecord
  2
ByLayer
 70
     0
  3

 72
    65
 73
     0
 40
0.0
  0
LTYPE
  5
16
330
5
100
AcDbSymbolTableRecord
100
AcDbLinetypeTableRecord
  2
Continuous
 70
     0
  3
Solid line
 72
    65
 73
     0
 40
0.0
  0
ENDTAB
  0
TABLE
  2
LAYER
  5
2
330
0
100
AcDbSymbolTable
 70
     2
  0
LAYER
  5
10
330
2
100
AcDbSymbolTableRecord
100
AcDbLayerTableRecord
  2
0
 70
     0
 62
     7
  6
Continuous
370
    -3
390
F
347
3E
  0
LAYER
  5
40
330
2
100
AcDbSymbolTableRecord
100
AcDbLayerTableRecord
  2
Calque 1
 70
     0
 62
     7
  6
Continuous
370
    -3
390
F
347
3E
  0
ENDTAB
  0
TABLE
  2
STYLE
  5
3
330
0
100
AcDbSymbolTable
 70
     1
  0
STYLE
  5
11
330
3
100
AcDbSymbolTableRecord
100
AcDbTextStyleTableRecord
  2
Standard
 70
     0
 40
0.0
 41
1.0
 50
0.0
 71
     0
 42
0.2
  3
txt
  4

  0
ENDTAB
  0
TABLE
  2
VIEW
  5
6
330
0
100
AcDbSymbolTable
 70
     0
  0
ENDTAB
  0
TABLE
  2
UCS
  5
7
330
0
100
AcDbSymbolTable
 70
     0
  0
ENDTAB
  0
TABLE
  2
APPID
  5
9
330
0
100
AcDbSymbolTable
 70
     1
  0
APPID
  5
12
330
9
100
AcDbSymbolTableRecord
100
AcDbRegAppTableRecord
  2
ACAD
 70
     0
  0
ENDTAB
  0
TABLE
  2
DIMSTYLE
  5
A
330
0
100
AcDbSymbolTable
 70
     1
100
AcDbDimStyleTable
  0
DIMSTYLE
105
27
330
A
100
AcDbSymbolTableRecord
100
AcDbDimStyleTableRecord
  2
Standard
 70
     0
178
     0
340
11
  0
ENDTAB
  0
TABLE
  2
BLOCK_RECORD
  5
1
330
0
100
AcDbSymbolTable
 70
    18
  0
BLOCK_RECORD
  5
1F
330
1
100
AcDbSymbolTableRecord
100
AcDbBlockTableRecord
  2
*Model_Space
340
22
 70
     0
280
     1
281
     0
  0
BLOCK_RECORD
  5
1B
330
1
100
AcDbSymbolTableRecord
100
AcDbBlockTableRecord
  2
*Paper_Space
340
1E
 70
     0
280
     1
281
     0
  0
BLOCK_RECORD
  5
23
330
1
100
AcDbSymbolTableRecord
100
AcDbBlockTableRecord
  2
*Paper_Space0
340
26
 70
     0
280
     1
281
     0
  0
BLOCK_RECORD
  5
41
330
1
100
AcDbSymbolTableRecord
100
AcDbBlockTableRecord
  2
block 2
340
0
102
{BLKREFS
331
42
102
}
 70
     0
280
     1
281
     0
  0
BLOCK_RECORD
  5
45
330
1
100
AcDbSymbolTableRecord
100
AcDbBlockTableRecord
  2
block 3
340
0
102
{BLKREFS
331
46
102
}
 70
     0
280
     1
281
     0
  0
BLOCK_RECORD
  5
49
330
1
100
AcDbSymbolTableRecord
100
AcDbBlockTableRecord
  2
block 4
340
0
102
{BLKREFS
331
4A
102
}
 70
     0
280
     1
281
     0
  0
BLOCK_RECORD
  5
4D
330
1
100
AcDbSymbolTableRecord
100
AcDbBlockTableRecord
  2
block 5
340
0
102
{BLKREFS
331
4E
102
}
 70
     0
280
     1
281
     0
  0
BLOCK_RECORD
  5
55
330
1
100
AcDbSymbolTableRecord
100
AcDbBlockTableRecord
  2
block 6
340
0
102
{BLKREFS
331
56
102
}
 70
     0
280
     1
281
     0
  0
BLOCK_RECORD
  5
5D
330
1
100
AcDbSymbolTableRecord
100
AcDbBlockTableRecord
  2
block 7
340
0
102
{BLKREFS
331
5E
102
}
 70
     0
280
     1
281
     0
  0
BLOCK_RECORD
  5
61
330
1
100
AcDbSymbolTableRecord
100
AcDbBlockTableRecord
  2
block 8
340
0
102
{BLKREFS
331
62
102
}
 70
     0
280
     1
281
     0
  0
BLOCK_RECORD
  5
6A
330
1
100
AcDbSymbolTableRecord
100
AcDbBlockTableRecord
  2
block 9
340
0
102
{BLKREFS
331
6B
102
}
 70
     0
280
     1
281
     0
  0
BLOCK_RECORD
  5
72
330
1
100
AcDbSymbolTableRecord
100
AcDbBlockTableRecord
  2
block 10
340
0
102
{BLKREFS
331
73
102
}
 70
     0
280
     1
281
     0
  0
BLOCK_RECORD
  5
7A
330
1
100
AcDbSymbolTableRecord
100
AcDbBlockTableRecord
  2
block 11
340
0
102
{BLKREFS
331
7B
102
}
 70
     0
280
     1
281
     0
  0
BLOCK_RECORD
  5
80
330
1
100
AcDbSymbolTableRecord
100
AcDbBlockTableRecord
  2
block 12
340
0
102
{BLKREFS
331
81
102
}
 70
     0
280
     1
281
     0
  0
BLOCK_RECORD
  5
86
330
1
100
AcDbSymbolTableRecord
100
AcDbBlockTableRecord
  2
block 13
340
0
102
{BLKREFS
331
87
102
}
 70
     0
280
     1
281
     0
  0
BLOCK_RECORD
  5
8A
330
1
100
AcDbSymbolTableRecord
100
AcDbBlockTableRecord
  2
block 14
340
0
102
{BLKREFS
331
8B
102
}
 70
     0
280
     1
281
     0
  0
BLOCK_RECORD
  5
8E
330
1
100
AcDbSymbolTableRecord
100
AcDbBlockTableRecord
  2
block 15
340
0
102
{BLKREFS
331
8F
102
}
 70
     0
280
     1
281
     0
  0
BLOCK_RECORD
  5
94
330
1
100
AcDbSymbolTableRecord
100
AcDbBlockTableRecord
  2
block 16
340
0
102
{BLKREFS
331
95
102
}
 70
     0
280
     1
281
     0
  0
BLOCK_RECORD
  5
9E
330
1
100
AcDbSymbolTableRecord
100
AcDbBlockTableRecord
  2
block 17
340
0
102
{BLKREFS
331
9F
102
}
 70
     0
280
     1
281
     0
  0
BLOCK_RECORD
  5
A8
330
1
100
AcDbSymbolTableRecord
100
AcDbBlockTableRecord
  2
block 18
340
0
102
{BLKREFS
331
A9
102
}
 70
     0
280
     1
281
     0
  0
ENDTAB
  0
ENDSEC
  0
SECTION
  2
BLOCKS
  0
BLOCK
  5
20
330
1F
100
AcDbEntity
  8
0
100
AcDbBlockBegin
  2
*Model_Space
 70
     0
 10
0.0
 20
0.0
 30
0.0
  3
*Model_Space
  1

  0
ENDBLK
  5
21
330
1F
100
AcDbEntity
  8
0
100
AcDbBlockEnd
  0
BLOCK
  5
1C
330
1B
100
AcDbEntity
 67
     1
  8
0
100
AcDbBlockBegin
  2
*Paper_Space
 70
     0
 10
0.0
 20
0.0
 30
0.0
  3
*Paper_Space
  1

  0
ENDBLK
  5
1D
330
1B
100
AcDbEntity
 67
     1
  8
0
100
AcDbBlockEnd
  0
BLOCK
  5
24
330
23
100
AcDbEntity
  8
0
100
AcDbBlockBegin
  2
*Paper_Space0
 70
     0
 10
0.0
 20
0.0
 30
0.0
  3
*Paper_Space0
  1

  0
ENDBLK
  5
25
330
23
100
AcDbEntity
  8
0
100
AcDbBlockEnd
  0
BLOCK
  5
43
330
41
100
AcDbEntity
  8
0
100
AcDbBlockBegin
  2
block 2
 70
     0
 10
0.0
 20
0.0
 30
0.0
  3
block 2
  1

  0
INSERT
  5
46
330
41
100
AcDbEntity
  8
Calque 1
100
AcDbBlockReference
  2
block 3
 10
0.0
 20
0.0
 30
0.0
  0
INSERT
  5
A9
330
41
100
AcDbEntity
  8
Calque 1
100
AcDbBlockReference
  2
block 18
 10
0.0
 20
0.0
 30
0.0
  0
ENDBLK
  5
44
330
41
100
AcDbEntity
  8
0
100
AcDbBlockEnd
  0
BLOCK
  5
47
330
45
100
AcDbEntity
  8
0
100
AcDbBlockBegin
  2
block 3
 70
     0
 10
0.0
 20
0.0
 30
0.0
  3
block 3
  1

  0
INSERT
  5
4A
330
45
100
AcDbEntity
  8
Calque 1
100
AcDbBlockReference
  2
block 4
 10
0.0
 20
0.0
 30
0.0
  0
INSERT
  5
5E
330
45
100
AcDbEntity
  8
Calque 1
100
AcDbBlockReference
  2
block 7
 10
0.0
 20
0.0
 30
0.0
  0
INSERT
  5
7B
330
45
100
AcDbEntity
  8
Calque 1
100
AcDbBlockReference
  2
block 11
 10
0.0
 20
0.0
 30
0.0
  0
INSERT
  5
9F
330
45
100
AcDbEntity
  8
Calque 1
100
AcDbBlockReference
  2
block 17
 10
0.0
 20
0.0
 30
0.0
  0
ENDBLK
  5
48
330
45
100
AcDbEntity
  8
0
100
AcDbBlockEnd
  0
BLOCK
  5
4B
330
49
100
AcDbEntity
  8
0
100
AcDbBlockBegin
  2
block 4
 70
     0
 10
0.0
 20
0.0
 30
0.0
  3
block 4
  1

  0
INSERT
  5
4E
330
49
100
AcDbEntity
  8
Calque 1
100
AcDbBlockReference
  2
block 5
 10
0.0
 20
0.0
 30
0.0
  0
INSERT
  5
56
330
49
100
AcDbEntity
  8
Calque 1
100
AcDbBlockReference
  2
block 6
 10
0.0
 20
0.0
 30
0.0
  0
ENDBLK
  5
4C
330
49
100
AcDbEntity
  8
0
100
AcDbBlockEnd
  0
BLOCK
  5
4F
330
4D
100
AcDbEntity
  8
0
100
AcDbBlockBegin
  2
block 5
 70
     0
 10
0.0
 20
0.0
 30
0.0
  3
block 5
  1

  0
SPLINE
  5
51
330
4D
100
AcDbEntity
  8
Calque 1
370
     0
100
AcDbSpline
210
0.0
220
0.0
230
1.0
 70
    11
 71
     3
 72
    20
 73
    16
 74
     0
 42
0.0000000001
 43
0.0000000001
 12
1.0
 22
0.0
 32
0.0
 13
1.0
 23
0.0
 33
0.0
 40
0.0
 40
0.0
 40
0.0
 40
0.0
 40
1.0
 40
1.0
 40
1.0
 40
2.0
 40
2.0
 40
2.0
 40
3.0
 40
3.0
 40
3.0
 40
4.0
 40
4.0
 40
4.0
 40
5.0
 40
5.0
 40
5.0
 40
5.0
 10
2.744444529215495
 20
1.070833418104384
 30
0.0
 10
2.745833502875434
 20
1.027777777777778
 30
0.0
 10
2.640277862548828
 20
0.9736111958821614
 30
0.0
 10
2.590277777777778
 20
0.966666751437717
 30
0.0
 10
2.540277693006727
 20
0.9597223069932725
 30
0.0
 10
2.581944359673394
 20
0.8944443596733941
 30
0.0
 10
2.634722179836697
 20
0.9013888041178385
 30
0.0
 10
2.6875
 20
0.9083332485622829
 30
0.0
 10
2.836111068725586
 20
0.9208331637912326
 30
0.0
 10
2.881944444444444
 20
0.9208331637912326
 30
0.0
 10
2.847222222222222
 20
0.9972220526801214
 30
0.0
 10
2.852777693006727
 20
1.101388719346788
 30
0.0
 10
2.847222222222222
 20
1.104166666666667
 30
0.0
 10
2.781944486829969
 20
1.091666751437717
 30
0.0
 10
2.744444529215495
 20
1.070833418104384
 30
0.0
 10
2.744444529215495
 20
1.070833418104384
 30
0.0
  0
HATCH
  5
52
330
4D
100
AcDbEntity
  8
Calque 1
 62
   178
420
   131587
100
AcDbHatch
 10
0.0
 20
0.0
 30
0.0
210
0.0
220
0.0
230
1.0
  2
SOLID
 70
     1
 71
     0
 91
        1
 92
        1
 93
        1
 72
     4
 94
        3
 73
     0
 74
     1
 95
       20
 96
       16
 40
0.0
 40
0.0
 40
0.0
 40
0.0
 40
1.0
 40
1.0
 40
1.0
 40
2.0
 40
2.0
 40
2.0
 40
3.0
 40
3.0
 40
3.0
 40
4.0
 40
4.0
 40
4.0
 40
5.0
 40
5.0
 40
5.0
 40
5.0
 10
2.744444529215495
 20
1.070833418104384
 10
2.745833502875434
 20
1.027777777777778
 10
2.640277862548828
 20
0.9736111958821614
 10
2.590277777777778
 20
0.966666751437717
 10
2.540277693006727
 20
0.9597223069932725
 10
2.581944359673394
 20
0.8944443596733941
 10
2.634722179836697
 20
0.9013888041178385
 10
2.6875
 20
0.9083332485622829
 10
2.836111068725586
 20
0.9208331637912326
 10
2.881944444444444
 20
0.9208331637912326
 10
2.847222222222222
 20
0.9972220526801214
 10
2.852777693006727
 20
1.101388719346788
 10
2.847222222222222
 20
1.104166666666667
 10
2.781944486829969
 20
1.091666751437717
 10
2.744444529215495
 20
1.070833418104384
 10
2.744444529215495
 20
1.070833418104384
 97
        0
 97
        0
 75
     2
 76
     1
 98
        0
  0
SPLINE
  5
53
330
4D
100
AcDbEntity
  8
Calque 1
370
     0
100
AcDbSpline
210
0.0
220
0.0
230
1.0
 70
    11
 71
     3
 72
    20
 73
    16
 74
     0
 42
0.0000000001
 43
0.0000000001
 12
1.0
 22
0.0
 32
0.0
 13
1.0
 23
0.0
 33
0.0
 40
0.0
 40
0.0
 40
0.0
 40
0.0
 40
1.0
 40
1.0
 40
1.0
 40
2.0
 40
2.0
 40
2.0
 40
3.0
 40
3.0
 40
3.0
 40
4.0
 40
4.0
 40
4.0
 40
5.0
 40
5.0
 40
5.0
 40
5.0
 10
3.481944402058919
 20
1.070833418104384
 30
0.0
 10
3.48055542839898
 20
1.027777777777778
 30
0.0
 10
3.586111280653212
 20
0.9736111958821614
 30
0.0
 10
3.63611094156901
 20
0.966666751437717
 30
0.0
 10
3.686111026340061
 20
0.9583333333333333
 30
0.0
 10
3.644444359673394
 20
0.8944443596733941
 30
0.0
 10
3.591666327582465
 20
0.9013888041178385
 30
0.0
 10
3.538888295491536
 20
0.9083332485622829
 30
0.0
 10
3.390277438693576
 20
0.9208331637912326
 30
0.0
 10
3.344444062974718
 20
0.9208331637912326
 30
0.0
 10
3.37916628519694
 20
0.9972220526801214
 30
0.0
 10
3.373610814412435
 20
1.101388719346788
 30
0.0
 10
3.37916628519694
 20
1.104166666666667
 30
0.0
 10
3.444444444444444
 20
1.091666751437717
 30
0.0
 10
3.481944402058919
 20
1.070833418104384
 30
0.0
 10
3.481944402058919
 20
1.070833418104384
 30
0.0
  0
HATCH
  5
54
330
4D
100
AcDbEntity
  8
Calque 1
 62
   178
420
   131587
100
AcDbHatch
 10
0.0
 20
0.0
 30
0.0
210
0.0
220
0.0
230
1.0
  2
SOLID
 70
     1
 71
     0
 91
        1
 92
        1
 93
        1
 72
     4
 94
        3
 73
     0
 74
     1
 95
       20
 96
       16
 40
0.0
 40
0.0
 40
0.0
 40
0.0
 40
1.0
 40
1.0
 40
1.0
 40
2.0
 40
2.0
 40
2.0
 40
3.0
 40
3.0
 40
3.0
 40
4.0
 40
4.0
 40
4.0
 40
5.0
 40
5.0
 40
5.0
 40
5.0
 10
3.481944402058919
 20
1.070833418104384
 10
3.48055542839898
 20
1.027777777777778
 10
3.586111280653212
 20
0.9736111958821614
 10
3.63611094156901
 20
0.966666751437717
 10
3.686111026340061
 20
0.9583333333333333
 10
3.644444359673394
 20
0.8944443596733941
 10
3.591666327582465
 20
0.9013888041178385
 10
3.538888295491536
 20
0.9083332485622829
 10
3.390277438693576
 20
0.9208331637912326
 10
3.344444062974718
 20
0.9208331637912326
 10
3.37916628519694
 20
0.9972220526801214
 10
3.373610814412435
 20
1.101388719346788
 10
3.37916628519694
 20
1.104166666666667
 10
3.444444444444444
 20
1.091666751437717
 10
3.481944402058919
 20
1.070833418104384
 10
3.481944402058919
 20
1.070833418104384
 97
        0
 97
        0
 75
     2
 76
     1
 98
        0
  0
ENDBLK
  5
50
330
4D
100
AcDbEntity
  8
0
100
AcDbBlockEnd
  0
BLOCK
  5
57
330
55
100
AcDbEntity
  8
0
100
AcDbBlockBegin
  2
block 6
 70
     0
 10
0.0
 20
0.0
 30
0.0
  3
block 6
  1

  0
SPLINE
  5
59
330
55
100
AcDbEntity
  8
Calque 1
370
     0
100
AcDbSpline
210
0.0
220
0.0
230
1.0
 70
    11
 71
     3
 72
    29
 73
    25
 74
     0
 42
0.0000000001
 43
0.0000000001
 12
1.0
 22
0.0
 32
0.0
 13
1.0
 23
0.0
 33
0.0
 40
0.0
 40
0.0
 40
0.0
 40
0.0
 40
1.0
 40
1.0
 40
1.0
 40
2.0
 40
2.0
 40
2.0
 40
3.0
 40
3.0
 40
3.0
 40
4.0
 40
4.0
 40
4.0
 40
5.0
 40
5.0
 40
5.0
 40
6.0
 40
6.0
 40
6.0
 40
7.0
 40
7.0
 40
7.0
 40
8.0
 40
8.0
 40
8.0
 40
8.0
 10
2.086111068725586
 20
2.859722137451172
 30
0.0
 10
2.038888931274414
 20
2.923611111111111
 30
0.0
 10
2.098610983954535
 20
3.004166497124566
 30
0.0
 10
2.086111068725586
 20
3.026388804117838
 30
0.0
 10
2.073611153496636
 20
3.047222137451172
 30
0.0
 10
2.001388761732313
 20
3.029166539510091
 30
0.0
 10
1.997222264607747
 20
2.979166666666667
 30
0.0
 10
1.993055555555555
 20
2.929166581895616
 30
0.0
 10
1.959722306993273
 20
2.974999957614475
 30
0.0
 10
1.915277904934353
 20
2.994444529215495
 30
0.0
 10
1.870833502875434
 20
3.013888888888889
 30
0.0
 10
1.836111280653212
 20
2.981944613986545
 30
0.0
 10
1.81944465637207
 20
2.947222391764323
 30
0.0
 10
1.802778032090929
 20
2.91388914320204
 30
0.0
 10
1.794444613986545
 20
2.816666920979817
 30
0.0
 10
1.875000211927626
 20
2.798611323038737
 30
0.0
 10
1.955555809868706
 20
2.780555725097656
 30
0.0
 10
1.955555809868706
 20
2.780555725097656
 30
0.0
 10
1.955555809868706
 20
2.780555725097656
 30
0.0
 10
1.955555809868706
 20
2.780555725097656
 30
0.0
 10
2.000000211927626
 20
2.777777989705403
 30
0.0
 10
2.040278116861979
 20
2.750000211927626
 30
0.0
 10
2.077777862548828
 20
2.779166751437717
 30
0.0
 10
2.118055555555555
 20
2.818055470784505
 30
0.0
 10
2.086111068725586
 20
2.859722137451172
 30
0.0
  0
HATCH
  5
5A
330
55
100
AcDbEntity
  8
Calque 1
 62
   178
420
   131587
100
AcDbHatch
 10
0.0
 20
0.0
 30
0.0
210
0.0
220
0.0
230
1.0
  2
SOLID
 70
     1
 71
     0
 91
        1
 92
        1
 93
        1
 72
     4
 94
        3
 73
     0
 74
     1
 95
       29
 96
       25
 40
0.0
 40
0.0
 40
0.0
 40
0.0
 40
1.0
 40
1.0
 40
1.0
 40
2.0
 40
2.0
 40
2.0
 40
3.0
 40
3.0
 40
3.0
 40
4.0
 40
4.0
 40
4.0
 40
5.0
 40
5.0
 40
5.0
 40
6.0
 40
6.0
 40
6.0
 40
7.0
 40
7.0
 40
7.0
 40
8.0
 40
8.0
 40
8.0
 40
8.0
 10
2.086111068725586
 20
2.859722137451172
 10
2.038888931274414
 20
2.923611111111111
 10
2.098610983954535
 20
3.004166497124566
 10
2.086111068725586
 20
3.026388804117838
 10
2.073611153496636
 20
3.047222137451172
 10
2.001388761732313
 20
3.029166539510091
 10
1.997222264607747
 20
2.979166666666667
 10
1.993055555555555
 20
2.929166581895616
 10
1.959722306993273
 20
2.974999957614475
 10
1.915277904934353
 20
2.994444529215495
 10
1.870833502875434
 20
3.013888888888889
 10
1.836111280653212
 20
2.981944613986545
 10
1.81944465637207
 20
2.947222391764323
 10
1.802778032090929
 20
2.91388914320204
 10
1.794444613986545
 20
2.816666920979817
 10
1.875000211927626
 20
2.798611323038737
 10
1.955555809868706
 20
2.780555725097656
 10
1.955555809868706
 20
2.780555725097656
 10
1.955555809868706
 20
2.780555725097656
 10
1.955555809868706
 20
2.780555725097656
 10
2.000000211927626
 20
2.777777989705403
 10
2.040278116861979
 20
2.750000211927626
 10
2.077777862548828
 20
2.779166751437717
 10
2.118055555555555
 20
2.818055470784505
 10
2.086111068725586
 20
2.859722137451172
 97
        0
 97
        0
 75
     2
 76
     1
 98
        0
  0
SPLINE
  5
5B
330
55
100
AcDbEntity
  8
Calque 1
370
     0
100
AcDbSpline
210
0.0
220
0.0
230
1.0
 70
    11
 71
     3
 72
    29
 73
    25
 74
     0
 42
0.0000000001
 43
0.0000000001
 12
1.0
 22
0.0
 32
0.0
 13
1.0
 23
0.0
 33
0.0
 40
0.0
 40
0.0
 40
0.0
 40
0.0
 40
1.0
 40
1.0
 40
1.0
 40
2.0
 40
2.0
 40
2.0
 40
3.0
 40
3.0
 40
3.0
 40
4.0
 40
4.0
 40
4.0
 40
5.0
 40
5.0
 40
5.0
 40
6.0
 40
6.0
 40
6.0
 40
7.0
 40
7.0
 40
7.0
 40
8.0
 40
8.0
 40
8.0
 40
8.0
 10
4.12361102634006
 20
2.795833375718858
 30
0.0
 10
4.170833163791232
 20
2.859722349378798
 30
0.0
 10
4.111111111111111
 20
2.940277735392252
 30
0.0
 10
4.12361102634006
 20
2.962500042385525
 30
0.0
 10
4.13611094156901
 20
2.983333375718858
 30
0.0
 10
4.208333333333333
 20
2.965277777777778
 30
0.0
 10
4.212499830457899
 20
2.915277904934353
 30
0.0
 10
4.216666327582465
 20
2.865278032090929
 30
0.0
 10
4.25
 20
2.911111195882161
 30
0.0
 10
4.294444190131293
 20
2.930555767483181
 30
0.0
 10
4.338888804117838
 20
2.950000127156575
 30
0.0
 10
4.37361102634006
 20
2.918055852254231
 30
0.0
 10
4.390277438693576
 20
2.88333363003201
 30
0.0
 10
4.406943851047092
 20
2.848611407809787
 30
0.0
 10
4.415277269151476
 20
2.752778159247504
 30
0.0
 10
4.334721883138021
 20
2.734722561306424
 30
0.0
 10
4.254166497124566
 20
2.716666963365343
 30
0.0
 10
4.254166497124566
 20
2.716666963365343
 30
0.0
 10
4.254166497124566
 20
2.716666963365343
 30
0.0
 10
4.254166497124566
 20
2.716666963365343
 30
0.0
 10
4.209721883138021
 20
2.71388922797309
 30
0.0
 10
4.169444190131293
 20
2.686111450195312
 30
0.0
 10
4.133333418104383
 20
2.715277777777778
 30
0.0
 10
4.093055725097656
 20
2.752777735392252
 30
0.0
 10
4.12361102634006
 20
2.795833375718858
 30
0.0
  0
HATCH
  5
5C
330
55
100
AcDbEntity
  8
Calque 1
 62
   178
420
   131587
100
AcDbHatch
 10
0.0
 20
0.0
 30
0.0
210
0.0
220
0.0
230
1.0
  2
SOLID
 70
     1
 71
     0
 91
        1
 92
        1
 93
        1
 72
     4
 94
        3
 73
     0
 74
     1
 95
       29
 96
       25
 40
0.0
 40
0.0
 40
0.0
 40
0.0
 40
1.0
 40
1.0
 40
1.0
 40
2.0
 40
2.0
 40
2.0
 40
3.0
 40
3.0
 40
3.0
 40
4.0
 40
4.0
 40
4.0
 40
5.0
 40
5.0
 40
5.0
 40
6.0
 40
6.0
 40
6.0
 40
7.0
 40
7.0
 40
7.0
 40
8.0
 40
8.0
 40
8.0
 40
8.0
 10
4.12361102634006
 20
2.795833375718858
 10
4.170833163791232
 20
2.859722349378798
 10
4.111111111111111
 20
2.940277735392252
 10
4.12361102634006
 20
2.962500042385525
 10
4.13611094156901
 20
2.983333375718858
 10
4.208333333333333
 20
2.965277777777778
 10
4.212499830457899
 20
2.915277904934353
 10
4.216666327582465
 20
2.865278032090929
 10
4.25
 20
2.911111195882161
 10
4.294444190131293
 20
2.930555767483181
 10
4.338888804117838
 20
2.950000127156575
 10
4.37361102634006
 20
2.918055852254231
 10
4.390277438693576
 20
2.88333363003201
 10
4.406943851047092
 20
2.848611407809787
 10
4.415277269151476
 20
2.752778159247504
 10
4.334721883138021
 20
2.734722561306424
 10
4.254166497124566
 20
2.716666963365343
 10
4.254166497124566
 20
2.716666963365343
 10
4.254166497124566
 20
2.716666963365343
 10
4.254166497124566
 20
2.716666963365343
 10
4.209721883138021
 20
2.71388922797309
 10
4.169444190131293
 20
2.686111450195312
 10
4.133333418104383
 20
2.715277777777778
 10
4.093055725097656
 20
2.752777735392252
 10
4.12361102634006
 20
2.795833375718858
 97
        0
 97
        0
 75
     2
 76
     1
 98
        0
  0
ENDBLK
  5
58
330
55
100
AcDbEntity
  8
0
100
AcDbBlockEnd
  0
BLOCK
  5
5F
330
5D
100
AcDbEntity
  8
0
100
AcDbBlockBegin
  2
block 7
 70
     0
 10
0.0
 20
0.0
 30
0.0
  3
block 7
  1

  0
INSERT
  5
62
330
5D
100
AcDbEntity
  8
Calque 1
100
AcDbBlockReference
  2
block 8
 10
0.0
 20
0.0
 30
0.0
  0
INSERT
  5
6B
330
5D
100
AcDbEntity
  8
Calque 1
100
AcDbBlockReference
  2
block 9
 10
0.0
 20
0.0
 30
0.0
  0
INSERT
  5
73
330
5D
100
AcDbEntity
  8
Calque 1
100
AcDbBlockReference
  2
block 10
 10
0.0
 20
0.0
 30
0.0
  0
ENDBLK
  5
60
330
5D
100
AcDbEntity
  8
0
100
AcDbBlockEnd
  0
BLOCK
  5
63
330
61
100
AcDbEntity
  8
0
100
AcDbBlockBegin
  2
block 8
 70
     0
 10
0.0
 20
0.0
 30
0.0
  3
block 8
  1

  0
SPLINE
  5
65
330
61
100
AcDbEntity
  8
Calque 1
370
     0
100
AcDbSpline
210
0.0
220
0.0
230
1.0
 70
    11
 71
     3
 72
    74
 73
    70
 74
     0
 42
0.0000000001
 43
0.0000000001
 12
1.0
 22
0.0
 32
0.0
 13
1.0
 23
0.0
 33
0.0
 40
0.0
 40
0.0
 40
0.0
 40
0.0
 40
1.0
 40
1.0
 40
1.0
 40
2.0
 40
2.0
 40
2.0
 40
3.0
 40
3.0
 40
3.0
 40
4.0
 40
4.0
 40
4.0
 40
5.0
 40
5.0
 40
5.0
 40
6.0
 40
6.0
 40
6.0
 40
7.0
 40
7.0
 40
7.0
 40
8.0
 40
8.0
 40
8.0
 40
9.0
 40
9.0
 40
9.0
 40
10.0
 40
10.0
 40
10.0
 40
11.0
 40
11.0
 40
11.0
 40
12.0
 40
12.0
 40
12.0
 40
13.0
 40
13.0
 40
13.0
 40
14.0
 40
14.0
 40
14.0
 40
15.0
 40
15.0
 40
15.0
 40
16.0
 40
16.0
 40
16.0
 40
17.0
 40
17.0
 40
17.0
 40
18.0
 40
18.0
 40
18.0
 40
19.0
 40
19.0
 40
19.0
 40
20.0
 40
20.0
 40
20.0
 40
21.0
 40
21.0
 40
21.0
 40
22.0
 40
22.0
 40
22.0
 40
23.0
 40
23.0
 40
23.0
 40
23.0
 10
4.159722222222222
 20
2.680555555555555
 30
0.0
 10
4.144444359673394
 20
2.656944486829969
 30
0.0
 10
3.82361094156901
 20
2.405555725097656
 30
0.0
 10
3.623611026340061
 20
2.251388973659939
 30
0.0
 10
3.697221967909071
 20
2.118055555555555
 30
0.0
 10
3.743055555555555
 20
2.002777947319879
 30
0.0
 10
3.765277862548828
 20
1.904166751437717
 30
0.0
 10
3.765277862548828
 20
1.904166751437717
 30
0.0
 10
3.765277862548828
 20
1.904166751437717
 30
0.0
 10
3.765277862548828
 20
1.904166751437717
 30
0.0
 10
3.784722222222222
 20
1.822222391764323
 30
0.0
 10
3.78888914320204
 20
1.751388973659939
 30
0.0
 10
3.781944698757595
 20
1.690277947319878
 30
0.0
 10
3.761111365424262
 20
1.48750008477105
 30
0.0
 10
3.611111534966363
 20
1.409722222222222
 30
0.0
 10
3.520833545260959
 20
1.358333587646484
 30
0.0
 10
3.513889100816515
 20
1.331944783528646
 30
0.0
 10
3.461111280653212
 20
1.16388914320204
 30
0.0
 10
3.465277989705403
 20
1.098611195882161
 30
0.0
 10
3.469444698757595
 20
1.033333248562283
 30
0.0
 10
3.354166878594292
 20
1.048611111111111
 30
0.0
 10
3.343055725097656
 20
1.07499991522895
 30
0.0
 10
3.33194457160102
 20
1.101388719346788
 30
0.0
 10
3.343055725097656
 20
1.166666666666667
 30
0.0
 10
3.343055725097656
 20
1.286111195882161
 30
0.0
 10
3.266666836208767
 20
1.26249991522895
 30
0.0
 10
3.059722476535373
 20
1.247222476535373
 30
0.0
 10
2.865278032090929
 20
1.297222137451172
 30
0.0
 10
2.865278032090929
 20
1.297222137451172
 30
0.0
 10
2.865278032090929
 20
1.07499991522895
 30
0.0
 10
2.865278032090929
 20
1.07499991522895
 30
0.0
 10
2.865278032090929
 20
1.005555470784505
 30
0.0
 10
2.712500254313151
 20
1.048611111111111
 30
0.0
 10
2.716666963365343
 20
1.07499991522895
 30
0.0
 10
2.720833672417534
 20
1.101388719346788
 30
0.0
 10
2.75694465637207
 20
1.21111085679796
 30
0.0
 10
2.684722476535373
 20
1.36250008477105
 30
0.0
 10
2.458333545260959
 20
1.490278032090929
 30
0.0
 10
2.370833502875434
 20
1.615278032090929
 30
0.0
 10
2.35138914320204
 20
1.765277862548828
 30
0.0
 10
2.343055725097656
 20
1.833333333333333
 30
0.0
 10
2.348611407809787
 20
1.900000254313151
 30
0.0
 10
2.362500296698676
 20
1.965277777777778
 30
0.0
 10
2.387500339084201
 20
2.079166836208767
 30
0.0
 10
2.436111450195312
 20
2.1875
 30
0.0
 10
2.479166878594292
 20
2.276388804117838
 30
0.0
 10
2.387500127156575
 20
2.326388888888889
 30
0.0
 10
2.097222434149848
 20
2.629166497124566
 30
0.0
 10
2.050000296698676
 20
2.693055470784505
 30
0.0
 10
2.004166920979817
 20
2.758333206176758
 30
0.0
 10
2.08888922797309
 20
2.861111111111111
 30
0.0
 10
2.145833545260959
 20
2.819444444444444
 30
0.0
 10
2.230555852254231
 20
2.758333418104383
 30
0.0
 10
2.563889185587565
 20
2.4375
 30
0.0
 10
2.633333418104383
 20
2.42500008477105
 30
0.0
 10
2.702777862548828
 20
2.41388914320204
 30
0.0
 10
2.673611111111111
 20
2.616666793823242
 30
0.0
 10
2.762500127156575
 20
2.605555640326606
 30
0.0
 10
2.8500001695421
 20
2.594444486829969
 30
0.0
 10
3.316666920979817
 20
2.586111280653212
 30
0.0
 10
3.401389016045464
 20
2.58194457160102
 30
0.0
 10
3.486111323038737
 20
2.577777862548828
 30
0.0
 10
3.409722434149848
 20
2.440277947319878
 30
0.0
 10
3.501388973659939
 20
2.451389100816515
 30
0.0
 10
3.593055725097656
 20
2.462500254313151
 30
0.0
 10
4.018055809868707
 20
2.76944457160102
 30
0.0
 10
4.063888973659939
 20
2.80694474114312
 30
0.0
 10
4.109722137451172
 20
2.848611195882161
 30
0.0
 10
4.17500008477105
 20
2.702777862548828
 30
0.0
 10
4.159722222222222
 20
2.680555555555555
 30
0.0
  0
HATCH
  5
66
330
61
100
AcDbEntity
  8
Calque 1
 62
    24
420
 10427945
100
AcDbHatch
 10
0.0
 20
0.0
 30
0.0
210
0.0
220
0.0
230
1.0
  2
SOLID
 70
     1
 71
     0
 91
        1
 92
        1
 93
        1
 72
     4
 94
        3
 73
     0
 74
     1
 95
       74
 96
       70
 40
0.0
 40
0.0
 40
0.0
 40
0.0
 40
1.0
 40
1.0
 40
1.0
 40
2.0
 40
2.0
 40
2.0
 40
3.0
 40
3.0
 40
3.0
 40
4.0
 40
4.0
 40
4.0
 40
5.0
 40
5.0
 40
5.0
 40
6.0
 40
6.0
 40
6.0
 40
7.0
 40
7.0
 40
7.0
 40
8.0
 40
8.0
 40
8.0
 40
9.0
 40
9.0
 40
9.0
 40
10.0
 40
10.0
 40
10.0
 40
11.0
 40
11.0
 40
11.0
 40
12.0
 40
12.0
 40
12.0
 40
13.0
 40
13.0
 40
13.0
 40
14.0
 40
14.0
 40
14.0
 40
15.0
 40
15.0
 40
15.0
 40
16.0
 40
16.0
 40
16.0
 40
17.0
 40
17.0
 40
17.0
 40
18.0
 40
18.0
 40
18.0
 40
19.0
 40
19.0
 40
19.0
 40
20.0
 40
20.0
 40
20.0
 40
21.0
 40
21.0
 40
21.0
 40
22.0
 40
22.0
 40
22.0
 40
23.0
 40
23.0
 40
23.0
 40
23.0
 10
4.159722222222222
 20
2.680555555555555
 10
4.144444359673394
 20
2.656944486829969
 10
3.82361094156901
 20
2.405555725097656
 10
3.623611026340061
 20
2.251388973659939
 10
3.697221967909071
 20
2.118055555555555
 10
3.743055555555555
 20
2.002777947319879
 10
3.765277862548828
 20
1.904166751437717
 10
3.765277862548828
 20
1.904166751437717
 10
3.765277862548828
 20
1.904166751437717
 10
3.765277862548828
 20
1.904166751437717
 10
3.784722222222222
 20
1.822222391764323
 10
3.78888914320204
 20
1.751388973659939
 10
3.781944698757595
 20
1.690277947319878
 10
3.761111365424262
 20
1.48750008477105
 10
3.611111534966363
 20
1.409722222222222
 10
3.520833545260959
 20
1.358333587646484
 10
3.513889100816515
 20
1.331944783528646
 10
3.461111280653212
 20
1.16388914320204
 10
3.465277989705403
 20
1.098611195882161
 10
3.469444698757595
 20
1.033333248562283
 10
3.354166878594292
 20
1.048611111111111
 10
3.343055725097656
 20
1.07499991522895
 10
3.33194457160102
 20
1.101388719346788
 10
3.343055725097656
 20
1.166666666666667
 10
3.343055725097656
 20
1.286111195882161
 10
3.266666836208767
 20
1.26249991522895
 10
3.059722476535373
 20
1.247222476535373
 10
2.865278032090929
 20
1.297222137451172
 10
2.865278032090929
 20
1.297222137451172
 10
2.865278032090929
 20
1.07499991522895
 10
2.865278032090929
 20
1.07499991522895
 10
2.865278032090929
 20
1.005555470784505
 10
2.712500254313151
 20
1.048611111111111
 10
2.716666963365343
 20
1.07499991522895
 10
2.720833672417534
 20
1.101388719346788
 10
2.75694465637207
 20
1.21111085679796
 10
2.684722476535373
 20
1.36250008477105
 10
2.458333545260959
 20
1.490278032090929
 10
2.370833502875434
 20
1.615278032090929
 10
2.35138914320204
 20
1.765277862548828
 10
2.343055725097656
 20
1.833333333333333
 10
2.348611407809787
 20
1.900000254313151
 10
2.362500296698676
 20
1.965277777777778
 10
2.387500339084201
 20
2.079166836208767
 10
2.436111450195312
 20
2.1875
 10
2.479166878594292
 20
2.276388804117838
 10
2.387500127156575
 20
2.326388888888889
 10
2.097222434149848
 20
2.629166497124566
 10
2.050000296698676
 20
2.693055470784505
 10
2.004166920979817
 20
2.758333206176758
 10
2.08888922797309
 20
2.861111111111111
 10
2.145833545260959
 20
2.819444444444444
 10
2.230555852254231
 20
2.758333418104383
 10
2.563889185587565
 20
2.4375
 10
2.633333418104383
 20
2.42500008477105
 10
2.702777862548828
 20
2.41388914320204
 10
2.673611111111111
 20
2.616666793823242
 10
2.762500127156575
 20
2.605555640326606
 10
2.8500001695421
 20
2.594444486829969
 10
3.316666920979817
 20
2.586111280653212
 10
3.401389016045464
 20
2.58194457160102
 10
3.486111323038737
 20
2.577777862548828
 10
3.409722434149848
 20
2.440277947319878
 10
3.501388973659939
 20
2.451389100816515
 10
3.593055725097656
 20
2.462500254313151
 10
4.018055809868707
 20
2.76944457160102
 10
4.063888973659939
 20
2.80694474114312
 10
4.109722137451172
 20
2.848611195882161
 10
4.17500008477105
 20
2.702777862548828
 10
4.159722222222222
 20
2.680555555555555
 97
        0
 97
        0
 75
     2
 76
     1
 98
        0
  0
SPLINE
  5
67
330
61
100
AcDbEntity
  8
Calque 1
370
     0
100
AcDbSpline
210
0.0
220
0.0
230
1.0
 70
    11
 71
     3
 72
    53
 73
    49
 74
     0
 42
0.0000000001
 43
0.0000000001
 12
1.0
 22
0.0
 32
0.0
 13
1.0
 23
0.0
 33
0.0
 40
0.0
 40
0.0
 40
0.0
 40
0.0
 40
1.0
 40
1.0
 40
1.0
 40
2.0
 40
2.0
 40
2.0
 40
3.0
 40
3.0
 40
3.0
 40
4.0
 40
4.0
 40
4.0
 40
5.0
 40
5.0
 40
5.0
 40
6.0
 40
6.0
 40
6.0
 40
7.0
 40
7.0
 40
7.0
 40
8.0
 40
8.0
 40
8.0
 40
9.0
 40
9.0
 40
9.0
 40
10.0
 40
10.0
 40
10.0
 40
11.0
 40
11.0
 40
11.0
 40
12.0
 40
12.0
 40
12.0
 40
13.0
 40
13.0
 40
13.0
 40
14.0
 40
14.0
 40
14.0
 40
15.0
 40
15.0
 40
15.0
 40
16.0
 40
16.0
 40
16.0
 40
16.0
 10
3.766666836208767
 20
1.904166751437717
 30
0.0
 10
3.583333333333333
 20
1.844444698757595
 30
0.0
 10
3.409722434149848
 20
1.815277947319878
 30
0.0
 10
3.245833502875434
 20
1.805555555555555
 30
0.0
 10
3.245833502875434
 20
1.805555555555555
 30
0.0
 10
3.245833502875434
 20
1.826388888888889
 30
0.0
 10
3.245833502875434
 20
1.826388888888889
 30
0.0
 10
3.245833502875434
 20
1.836111280653212
 30
0.0
 10
3.238889058430989
 20
1.843055725097656
 30
0.0
 10
3.229166878594292
 20
1.843055725097656
 30
0.0
 10
3.229166878594292
 20
1.843055725097656
 30
0.0
 10
2.934722476535373
 20
1.843055725097656
 30
0.0
 10
2.934722476535373
 20
1.843055725097656
 30
0.0
 10
2.925000296698676
 20
1.843055725097656
 30
0.0
 10
2.918055852254231
 20
1.836111280653212
 30
0.0
 10
2.918055852254231
 20
1.826388888888889
 30
0.0
 10
2.918055852254231
 20
1.826388888888889
 30
0.0
 10
2.918055852254231
 20
1.816666497124566
 30
0.0
 10
2.918055852254231
 20
1.816666497124566
 30
0.0
 10
2.69583363003201
 20
1.843055301242404
 30
0.0
 10
2.505555894639757
 20
1.902777777777778
 30
0.0
 10
2.362500296698676
 20
1.966666327582465
 30
0.0
 10
2.348611407809787
 20
1.901388380262587
 30
0.0
 10
2.343055937025282
 20
1.833332909478081
 30
0.0
 10
2.35138914320204
 20
1.766666412353516
 30
0.0
 10
2.529166963365343
 20
1.702777438693576
 30
0.0
 10
2.723611407809787
 20
1.663888719346788
 30
0.0
 10
2.918055852254231
 20
1.645832909478081
 30
0.0
 10
2.918055852254231
 20
1.645832909478081
 30
0.0
 10
2.918055852254231
 20
1.616666158040365
 30
0.0
 10
2.918055852254231
 20
1.616666158040365
 30
0.0
 10
2.918055852254231
 20
1.606943766276042
 30
0.0
 10
2.925000296698676
 20
1.599999321831597
 30
0.0
 10
2.934722476535373
 20
1.599999321831597
 30
0.0
 10
2.934722476535373
 20
1.599999321831597
 30
0.0
 10
3.229166878594292
 20
1.599999321831597
 30
0.0
 10
3.229166878594292
 20
1.599999321831597
 30
0.0
 10
3.238889058430989
 20
1.599999321831597
 30
0.0
 10
3.245833502875434
 20
1.606943766276042
 30
0.0
 10
3.245833502875434
 20
1.616666158040365
 30
0.0
 10
3.245833502875434
 20
1.616666158040365
 30
0.0
 10
3.245833502875434
 20
1.633332994249132
 30
0.0
 10
3.245833502875434
 20
1.633332994249132
 30
0.0
 10
3.440277947319878
 20
1.63611094156901
 30
0.0
 10
3.626388973659939
 20
1.656944274902344
 30
0.0
 10
3.784722222222222
 20
1.688888549804688
 30
0.0
 10
3.790277693006727
 20
1.751388973659939
 30
0.0
 10
3.786111195882161
 20
1.822222391764323
 30
0.0
 10
3.766666836208767
 20
1.904166751437717
 30
0.0
  0
SPLINE
  5
68
330
61
100
AcDbEntity
  8
Calque 1
370
     0
100
AcDbSpline
210
0.0
220
0.0
230
1.0
 70
    11
 71
     3
 72
    29
 73
    25
 74
     0
 42
0.0000000001
 43
0.0000000001
 12
1.0
 22
0.0
 32
0.0
 13
1.0
 23
0.0
 33
0.0
 40
0.0
 40
0.0
 40
0.0
 40
0.0
 40
1.0
 40
1.0
 40
1.0
 40
2.0
 40
2.0
 40
2.0
 40
3.0
 40
3.0
 40
3.0
 40
4.0
 40
4.0
 40
4.0
 40
5.0
 40
5.0
 40
5.0
 40
6.0
 40
6.0
 40
6.0
 40
7.0
 40
7.0
 40
7.0
 40
8.0
 40
8.0
 40
8.0
 40
8.0
 10
3.183333290947808
 20
1.67500008477105
 30
0.0
 10
3.183333290947808
 20
1.665277693006727
 30
0.0
 10
3.176388846503364
 20
1.658333248562283
 30
0.0
 10
3.166666666666667
 20
1.658333248562283
 30
0.0
 10
3.166666666666667
 20
1.658333248562283
 30
0.0
 10
2.995833290947808
 20
1.658333248562283
 30
0.0
 10
2.995833290947808
 20
1.658333248562283
 30
0.0
 10
2.986111111111111
 20
1.658333248562283
 30
0.0
 10
2.979166666666667
 20
1.665277693006727
 30
0.0
 10
2.979166666666667
 20
1.67500008477105
 30
0.0
 10
2.979166666666667
 20
1.67500008477105
 30
0.0
 10
2.979166666666667
 20
1.776388804117838
 30
0.0
 10
2.979166666666667
 20
1.776388804117838
 30
0.0
 10
2.979166666666667
 20
1.786111195882161
 30
0.0
 10
2.986111111111111
 20
1.793055640326606
 30
0.0
 10
2.995833290947808
 20
1.793055640326606
 30
0.0
 10
2.995833290947808
 20
1.793055640326606
 30
0.0
 10
3.166666666666667
 20
1.793055640326606
 30
0.0
 10
3.166666666666667
 20
1.793055640326606
 30
0.0
 10
3.176388846503364
 20
1.793055640326606
 30
0.0
 10
3.183333290947808
 20
1.786111195882161
 30
0.0
 10
3.183333290947808
 20
1.776388804117838
 30
0.0
 10
3.183333290947808
 20
1.776388804117838
 30
0.0
 10
3.183333290947808
 20
1.67500008477105
 30
0.0
 10
3.183333290947808
 20
1.67500008477105
 30
0.0
  0
HATCH
  5
69
330
61
100
AcDbEntity
  8
Calque 1
 62
    33
420
 14129757
100
AcDbHatch
 10
0.0
 20
0.0
 30
0.0
210
0.0
220
0.0
230
1.0
  2
SOLID
 70
     1
 71
     0
 91
        2
 92
        1
 93
        1
 72
     4
 94
        3
 73
     0
 74
     1
 95
       53
 96
       49
 40
0.0
 40
0.0
 40
0.0
 40
0.0
 40
1.0
 40
1.0
 40
1.0
 40
2.0
 40
2.0
 40
2.0
 40
3.0
 40
3.0
 40
3.0
 40
4.0
 40
4.0
 40
4.0
 40
5.0
 40
5.0
 40
5.0
 40
6.0
 40
6.0
 40
6.0
 40
7.0
 40
7.0
 40
7.0
 40
8.0
 40
8.0
 40
8.0
 40
9.0
 40
9.0
 40
9.0
 40
10.0
 40
10.0
 40
10.0
 40
11.0
 40
11.0
 40
11.0
 40
12.0
 40
12.0
 40
12.0
 40
13.0
 40
13.0
 40
13.0
 40
14.0
 40
14.0
 40
14.0
 40
15.0
 40
15.0
 40
15.0
 40
16.0
 40
16.0
 40
16.0
 40
16.0
 10
3.766666836208767
 20
1.904166751437717
 10
3.583333333333333
 20
1.844444698757595
 10
3.409722434149848
 20
1.815277947319878
 10
3.245833502875434
 20
1.805555555555555
 10
3.245833502875434
 20
1.805555555555555
 10
3.245833502875434
 20
1.826388888888889
 10
3.245833502875434
 20
1.826388888888889
 10
3.245833502875434
 20
1.836111280653212
 10
3.238889058430989
 20
1.843055725097656
 10
3.229166878594292
 20
1.843055725097656
 10
3.229166878594292
 20
1.843055725097656
 10
2.934722476535373
 20
1.843055725097656
 10
2.934722476535373
 20
1.843055725097656
 10
2.925000296698676
 20
1.843055725097656
 10
2.918055852254231
 20
1.836111280653212
 10
2.918055852254231
 20
1.826388888888889
 10
2.918055852254231
 20
1.826388888888889
 10
2.918055852254231
 20
1.816666497124566
 10
2.918055852254231
 20
1.816666497124566
 10
2.69583363003201
 20
1.843055301242404
 10
2.505555894639757
 20
1.902777777777778
 10
2.362500296698676
 20
1.966666327582465
 10
2.348611407809787
 20
1.901388380262587
 10
2.343055937025282
 20
1.833332909478081
 10
2.35138914320204
 20
1.766666412353516
 10
2.529166963365343
 20
1.702777438693576
 10
2.723611407809787
 20
1.663888719346788
 10
2.918055852254231
 20
1.645832909478081
 10
2.918055852254231
 20
1.645832909478081
 10
2.918055852254231
 20
1.616666158040365
 10
2.918055852254231
 20
1.616666158040365
 10
2.918055852254231
 20
1.606943766276042
 10
2.925000296698676
 20
1.599999321831597
 10
2.934722476535373
 20
1.599999321831597
 10
2.934722476535373
 20
1.599999321831597
 10
3.229166878594292
 20
1.599999321831597
 10
3.229166878594292
 20
1.599999321831597
 10
3.238889058430989
 20
1.599999321831597
 10
3.245833502875434
 20
1.606943766276042
 10
3.245833502875434
 20
1.616666158040365
 10
3.245833502875434
 20
1.616666158040365
 10
3.245833502875434
 20
1.633332994249132
 10
3.245833502875434
 20
1.633332994249132
 10
3.440277947319878
 20
1.63611094156901
 10
3.626388973659939
 20
1.656944274902344
 10
3.784722222222222
 20
1.688888549804688
 10
3.790277693006727
 20
1.751388973659939
 10
3.786111195882161
 20
1.822222391764323
 10
3.766666836208767
 20
1.904166751437717
 97
        0
 97
        0
 92
        1
 93
        1
 72
     4
 94
        3
 73
     0
 74
     1
 95
       29
 96
       25
 40
0.0
 40
0.0
 40
0.0
 40
0.0
 40
1.0
 40
1.0
 40
1.0
 40
2.0
 40
2.0
 40
2.0
 40
3.0
 40
3.0
 40
3.0
 40
4.0
 40
4.0
 40
4.0
 40
5.0
 40
5.0
 40
5.0
 40
6.0
 40
6.0
 40
6.0
 40
7.0
 40
7.0
 40
7.0
 40
8.0
 40
8.0
 40
8.0
 40
8.0
 10
3.183333290947808
 20
1.67500008477105
 10
3.183333290947808
 20
1.665277693006727
 10
3.176388846503364
 20
1.658333248562283
 10
3.166666666666667
 20
1.658333248562283
 10
3.166666666666667
 20
1.658333248562283
 10
2.995833290947808
 20
1.658333248562283
 10
2.995833290947808
 20
1.658333248562283
 10
2.986111111111111
 20
1.658333248562283
 10
2.979166666666667
 20
1.665277693006727
 10
2.979166666666667
 20
1.67500008477105
 10
2.979166666666667
 20
1.67500008477105
 10
2.979166666666667
 20
1.776388804117838
 10
2.979166666666667
 20
1.776388804117838
 10
2.979166666666667
 20
1.786111195882161
 10
2.986111111111111
 20
1.793055640326606
 10
2.995833290947808
 20
1.793055640326606
 10
2.995833290947808
 20
1.793055640326606
 10
3.166666666666667
 20
1.793055640326606
 10
3.166666666666667
 20
1.793055640326606
 10
3.176388846503364
 20
1.793055640326606
 10
3.183333290947808
 20
1.786111195882161
 10
3.183333290947808
 20
1.776388804117838
 10
3.183333290947808
 20
1.776388804117838
 10
3.183333290947808
 20
1.67500008477105
 10
3.183333290947808
 20
1.67500008477105
 97
        0
 97
        0
 75
     2
 76
     1
 98
        0
  0
ENDBLK
  5
64
330
61
100
AcDbEntity
  8
0
100
AcDbBlockEnd
  0
BLOCK
  5
6C
330
6A
100
AcDbEntity
  8
0
100
AcDbBlockBegin
  2
block 9
 70
     0
 10
0.0
 20
0.0
 30
0.0
  3
block 9
  1

  0
SPLINE
  5
6E
330
6A
100
AcDbEntity
  8
Calque 1
370
     0
100
AcDbSpline
210
0.0
220
0.0
230
1.0
 70
    11
 71
     3
 72
    17
 73
    13
 74
     0
 42
0.0000000001
 43
0.0000000001
 12
1.0
 22
0.0
 32
0.0
 13
1.0
 23
0.0
 33
0.0
 40
0.0
 40
0.0
 40
0.0
 40
0.0
 40
1.0
 40
1.0
 40
1.0
 40
2.0
 40
2.0
 40
2.0
 40
3.0
 40
3.0
 40
3.0
 40
4.0
 40
4.0
 40
4.0
 40
4.0
 10
2.881944444444444
 20
1.01249991522895
 30
0.0
 10
2.826388888888889
 20
1.024999830457899
 30
0.0
 10
2.734722137451172
 20
1.020833333333333
 30
0.0
 10
2.691666709052192
 20
1.044444190131293
 30
0.0
 10
2.648611068725586
 20
1.069444020589193
 30
0.0
 10
2.715277777777778
 20
1.138888465033637
 30
0.0
 10
2.768055597941081
 20
1.129166497124566
 30
0.0
 10
2.820833418104383
 20
1.118055555555556
 30
0.0
 10
2.865277820163303
 20
1.094444274902344
 30
0.0
 10
2.900000042385525
 20
1.08611085679796
 30
0.0
 10
2.933333290947808
 20
1.077777862548828
 30
0.0
 10
2.915277693006727
 20
1.004166497124566
 30
0.0
 10
2.881944444444444
 20
1.01249991522895
 30
0.0
  0
HATCH
  5
6F
330
6A
100
AcDbEntity
  8
Calque 1
 62
   254
420
 15197926
100
AcDbHatch
 10
0.0
 20
0.0
 30
0.0
210
0.0
220
0.0
230
1.0
  2
SOLID
 70
     1
 71
     0
 91
        1
 92
        1
 93
        1
 72
     4
 94
        3
 73
     0
 74
     1
 95
       17
 96
       13
 40
0.0
 40
0.0
 40
0.0
 40
0.0
 40
1.0
 40
1.0
 40
1.0
 40
2.0
 40
2.0
 40
2.0
 40
3.0
 40
3.0
 40
3.0
 40
4.0
 40
4.0
 40
4.0
 40
4.0
 10
2.881944444444444
 20
1.01249991522895
 10
2.826388888888889
 20
1.024999830457899
 10
2.734722137451172
 20
1.020833333333333
 10
2.691666709052192
 20
1.044444190131293
 10
2.648611068725586
 20
1.069444020589193
 10
2.715277777777778
 20
1.138888465033637
 10
2.768055597941081
 20
1.129166497124566
 10
2.820833418104383
 20
1.118055555555556
 10
2.865277820163303
 20
1.094444274902344
 10
2.900000042385525
 20
1.08611085679796
 10
2.933333290947808
 20
1.077777862548828
 10
2.915277693006727
 20
1.004166497124566
 10
2.881944444444444
 20
1.01249991522895
 97
        0
 97
        0
 75
     2
 76
     1
 98
        0
  0
SPLINE
  5
70
330
6A
100
AcDbEntity
  8
Calque 1
370
     0
100
AcDbSpline
210
0.0
220
0.0
230
1.0
 70
    11
 71
     3
 72
    17
 73
    13
 74
     0
 42
0.0000000001
 43
0.0000000001
 12
1.0
 22
0.0
 32
0.0
 13
1.0
 23
0.0
 33
0.0
 40
0.0
 40
0.0
 40
0.0
 40
0.0
 40
1.0
 40
1.0
 40
1.0
 40
2.0
 40
2.0
 40
2.0
 40
3.0
 40
3.0
 40
3.0
 40
4.0
 40
4.0
 40
4.0
 40
4.0
 10
3.338888804117838
 20
1.01249991522895
 30
0.0
 10
3.394444359673394
 20
1.024999830457899
 30
0.0
 10
3.486111111111111
 20
1.020833333333333
 30
0.0
 10
3.529166539510091
 20
1.044444190131293
 30
0.0
 10
3.572221967909071
 20
1.068055046929253
 30
0.0
 10
3.505555470784505
 20
1.138888465033637
 30
0.0
 10
3.452777650621202
 20
1.129166497124566
 30
0.0
 10
3.399999830457899
 20
1.118055555555556
 30
0.0
 10
3.35555542839898
 20
1.094444274902344
 30
0.0
 10
3.320833206176758
 20
1.08611085679796
 30
0.0
 10
3.287499957614475
 20
1.077777862548828
 30
0.0
 10
3.304166581895616
 20
1.004166497124566
 30
0.0
 10
3.338888804117838
 20
1.01249991522895
 30
0.0
  0
HATCH
  5
71
330
6A
100
AcDbEntity
  8
Calque 1
 62
   254
420
 15197926
100
AcDbHatch
 10
0.0
 20
0.0
 30
0.0
210
0.0
220
0.0
230
1.0
  2
SOLID
 70
     1
 71
     0
 91
        1
 92
        1
 93
        1
 72
     4
 94
        3
 73
     0
 74
     1
 95
       17
 96
       13
 40
0.0
 40
0.0
 40
0.0
 40
0.0
 40
1.0
 40
1.0
 40
1.0
 40
2.0
 40
2.0
 40
2.0
 40
3.0
 40
3.0
 40
3.0
 40
4.0
 40
4.0
 40
4.0
 40
4.0
 10
3.338888804117838
 20
1.01249991522895
 10
3.394444359673394
 20
1.024999830457899
 10
3.486111111111111
 20
1.020833333333333
 10
3.529166539510091
 20
1.044444190131293
 10
3.572221967909071
 20
1.068055046929253
 10
3.505555470784505
 20
1.138888465033637
 10
3.452777650621202
 20
1.129166497124566
 10
3.399999830457899
 20
1.118055555555556
 10
3.35555542839898
 20
1.094444274902344
 10
3.320833206176758
 20
1.08611085679796
 10
3.287499957614475
 20
1.077777862548828
 10
3.304166581895616
 20
1.004166497124566
 10
3.338888804117838
 20
1.01249991522895
 97
        0
 97
        0
 75
     2
 76
     1
 98
        0
  0
ENDBLK
  5
6D
330
6A
100
AcDbEntity
  8
0
100
AcDbBlockEnd
  0
BLOCK
  5
74
330
72
100
AcDbEntity
  8
0
100
AcDbBlockBegin
  2
block 10
 70
     0
 10
0.0
 20
0.0
 30
0.0
  3
block 10
  1

  0
SPLINE
  5
76
330
72
100
AcDbEntity
  8
Calque 1
370
     0
100
AcDbSpline
210
0.0
220
0.0
230
1.0
 70
    11
 71
     3
 72
    17
 73
    13
 74
     0
 42
0.0000000001
 43
0.0000000001
 12
1.0
 22
0.0
 32
0.0
 13
1.0
 23
0.0
 33
0.0
 40
0.0
 40
0.0
 40
0.0
 40
0.0
 40
1.0
 40
1.0
 40
1.0
 40
2.0
 40
2.0
 40
2.0
 40
3.0
 40
3.0
 40
3.0
 40
4.0
 40
4.0
 40
4.0
 40
4.0
 10
2.169444402058919
 20
2.848611195882161
 30
0.0
 10
2.131944444444444
 20
2.805555555555555
 30
0.0
 10
2.09305551317003
 20
2.722222222222222
 30
0.0
 10
2.051388846503364
 20
2.695833418104383
 30
0.0
 10
2.009722179836697
 20
2.669444613986545
 30
0.0
 10
1.979166666666667
 20
2.761111153496636
 30
0.0
 10
2.01249991522895
 20
2.802777820163303
 30
0.0
 10
2.047222137451172
 20
2.844444486829969
 30
0.0
 10
2.088888804117838
 20
2.872222264607747
 30
0.0
 10
2.112499872843424
 20
2.898611068725586
 30
0.0
 10
2.13611094156901
 20
2.924999872843424
 30
0.0
 10
2.193055470784505
 20
2.875
 30
0.0
 10
2.169444402058919
 20
2.848611195882161
 30
0.0
  0
HATCH
  5
77
330
72
100
AcDbEntity
  8
Calque 1
 62
   254
420
 15197926
100
AcDbHatch
 10
0.0
 20
0.0
 30
0.0
210
0.0
220
0.0
230
1.0
  2
SOLID
 70
     1
 71
     0
 91
        1
 92
        1
 93
        1
 72
     4
 94
        3
 73
     0
 74
     1
 95
       17
 96
       13
 40
0.0
 40
0.0
 40
0.0
 40
0.0
 40
1.0
 40
1.0
 40
1.0
 40
2.0
 40
2.0
 40
2.0
 40
3.0
 40
3.0
 40
3.0
 40
4.0
 40
4.0
 40
4.0
 40
4.0
 10
2.169444402058919
 20
2.848611195882161
 10
2.131944444444444
 20
2.805555555555555
 10
2.09305551317003
 20
2.722222222222222
 10
2.051388846503364
 20
2.695833418104383
 10
2.009722179836697
 20
2.669444613986545
 10
1.979166666666667
 20
2.761111153496636
 10
2.01249991522895
 20
2.802777820163303
 10
2.047222137451172
 20
2.844444486829969
 10
2.088888804117838
 20
2.872222264607747
 10
2.112499872843424
 20
2.898611068725586
 10
2.13611094156901
 20
2.924999872843424
 10
2.193055470784505
 20
2.875
 10
2.169444402058919
 20
2.848611195882161
 97
        0
 97
        0
 75
     2
 76
     1
 98
        0
  0
SPLINE
  5
78
330
72
100
AcDbEntity
  8
Calque 1
370
     0
100
AcDbSpline
210
0.0
220
0.0
230
1.0
 70
    11
 71
     3
 72
    17
 73
    13
 74
     0
 42
0.0000000001
 43
0.0000000001
 12
1.0
 22
0.0
 32
0.0
 13
1.0
 23
0.0
 33
0.0
 40
0.0
 40
0.0
 40
0.0
 40
0.0
 40
1.0
 40
1.0
 40
1.0
 40
2.0
 40
2.0
 40
2.0
 40
3.0
 40
3.0
 40
3.0
 40
4.0
 40
4.0
 40
4.0
 40
4.0
 10
4.041666666666666
 20
2.783333248562283
 30
0.0
 10
4.079166836208767
 20
2.740277608235677
 30
0.0
 10
4.118055555555555
 20
2.656944274902344
 30
0.0
 10
4.159722222222222
 20
2.630555470784505
 30
0.0
 10
4.201388888888888
 20
2.604166666666667
 30
0.0
 10
4.231944613986545
 20
2.695833206176758
 30
0.0
 10
4.19861094156901
 20
2.737499872843424
 30
0.0
 10
4.163888719346788
 20
2.779166539510091
 30
0.0
 10
4.122222052680121
 20
2.806944317287869
 30
0.0
 10
4.09861077202691
 20
2.833333121405707
 30
0.0
 10
4.074999491373697
 20
2.859721925523546
 30
0.0
 10
4.018055386013454
 20
2.811111026340061
 30
0.0
 10
4.041666666666666
 20
2.783333248562283
 30
0.0
  0
HATCH
  5
79
330
72
100
AcDbEntity
  8
Calque 1
 62
   254
420
 15197926
100
AcDbHatch
 10
0.0
 20
0.0
 30
0.0
210
0.0
220
0.0
230
1.0
  2
SOLID
 70
     1
 71
     0
 91
        1
 92
        1
 93
        1
 72
     4
 94
        3
 73
     0
 74
     1
 95
       17
 96
       13
 40
0.0
 40
0.0
 40
0.0
 40
0.0
 40
1.0
 40
1.0
 40
1.0
 40
2.0
 40
2.0
 40
2.0
 40
3.0
 40
3.0
 40
3.0
 40
4.0
 40
4.0
 40
4.0
 40
4.0
 10
4.041666666666666
 20
2.783333248562283
 10
4.079166836208767
 20
2.740277608235677
 10
4.118055555555555
 20
2.656944274902344
 10
4.159722222222222
 20
2.630555470784505
 10
4.201388888888888
 20
2.604166666666667
 10
4.231944613986545
 20
2.695833206176758
 10
4.19861094156901
 20
2.737499872843424
 10
4.163888719346788
 20
2.779166539510091
 10
4.122222052680121
 20
2.806944317287869
 10
4.09861077202691
 20
2.833333121405707
 10
4.074999491373697
 20
2.859721925523546
 10
4.018055386013454
 20
2.811111026340061
 10
4.041666666666666
 20
2.783333248562283
 97
        0
 97
        0
 75
     2
 76
     1
 98
        0
  0
ENDBLK
  5
75
330
72
100
AcDbEntity
  8
0
100
AcDbBlockEnd
  0
BLOCK
  5
7C
330
7A
100
AcDbEntity
  8
0
100
AcDbBlockBegin
  2
block 11
 70
     0
 10
0.0
 20
0.0
 30
0.0
  3
block 11
  1

  0
SPLINE
  5
7E
330
7A
100
AcDbEntity
  8
Calque 1
370
     0
100
AcDbSpline
210
0.0
220
0.0
230
1.0
 70
    11
 71
     3
 72
    17
 73
    13
 74
     0
 42
0.0000000001
 43
0.0000000001
 12
1.0
 22
0.0
 32
0.0
 13
1.0
 23
0.0
 33
0.0
 40
0.0
 40
0.0
 40
0.0
 40
0.0
 40
1.0
 40
1.0
 40
1.0
 40
2.0
 40
2.0
 40
2.0
 40
3.0
 40
3.0
 40
3.0
 40
4.0
 40
4.0
 40
4.0
 40
4.0
 10
2.594444486829969
 20
3.17500008477105
 30
0.0
 10
2.575000127156575
 20
3.288888931274414
 30
0.0
 10
2.630555682712131
 20
3.520833333333333
 30
0.0
 10
2.980555640326606
 20
3.569444444444444
 30
0.0
 10
3.330555597941081
 20
3.618055555555555
 30
0.0
 10
3.486111111111111
 20
3.590277777777778
 30
0.0
 10
3.558333502875434
 20
3.291666666666667
 30
0.0
 10
3.630555894639757
 20
2.993055555555555
 30
0.0
 10
3.420833587646484
 20
2.738888846503364
 30
0.0
 10
3.097222434149848
 20
2.768055597941081
 30
0.0
 10
2.773611280653212
 20
2.797222349378798
 30
0.0
 10
2.623611026340061
 20
3.0
 30
0.0
 10
2.594444486829969
 20
3.17500008477105
 30
0.0
  0
HATCH
  5
7F
330
7A
100
AcDbEntity
  8
Calque 1
 62
   254
420
 15983828
100
AcDbHatch
 10
0.0
 20
0.0
 30
0.0
210
0.0
220
0.0
230
1.0
  2
SOLID
 70
     1
 71
     0
 91
        1
 92
        1
 93
        1
 72
     4
 94
        3
 73
     0
 74
     1
 95
       17
 96
       13
 40
0.0
 40
0.0
 40
0.0
 40
0.0
 40
1.0
 40
1.0
 40
1.0
 40
2.0
 40
2.0
 40
2.0
 40
3.0
 40
3.0
 40
3.0
 40
4.0
 40
4.0
 40
4.0
 40
4.0
 10
2.594444486829969
 20
3.17500008477105
 10
2.575000127156575
 20
3.288888931274414
 10
2.630555682712131
 20
3.520833333333333
 10
2.980555640326606
 20
3.569444444444444
 10
3.330555597941081
 20
3.618055555555555
 10
3.486111111111111
 20
3.590277777777778
 10
3.558333502875434
 20
3.291666666666667
 10
3.630555894639757
 20
2.993055555555555
 10
3.420833587646484
 20
2.738888846503364
 10
3.097222434149848
 20
2.768055597941081
 10
2.773611280653212
 20
2.797222349378798
 10
2.623611026340061
 20
3.0
 10
2.594444486829969
 20
3.17500008477105
 97
        0
 97
        0
 75
     2
 76
     1
 98
        0
  0
INSERT
  5
81
330
7A
100
AcDbEntity
  8
Calque 1
100
AcDbBlockReference
  2
block 12
 10
0.0
 20
0.0
 30
0.0
  0
ENDBLK
  5
7D
330
7A
100
AcDbEntity
  8
0
100
AcDbBlockEnd
  0
BLOCK
  5
82
330
80
100
AcDbEntity
  8
0
100
AcDbBlockBegin
  2
block 12
 70
     0
 10
0.0
 20
0.0
 30
0.0
  3
block 12
  1

  0
SPLINE
  5
84
330
80
100
AcDbEntity
  8
Calque 1
370
     0
100
AcDbSpline
210
0.0
220
0.0
230
1.0
 70
    11
 71
     3
 72
    41
 73
    37
 74
     0
 42
0.0000000001
 43
0.0000000001
 12
1.0
 22
0.0
 32
0.0
 13
1.0
 23
0.0
 33
0.0
 40
0.0
 40
0.0
 40
0.0
 40
0.0
 40
1.0
 40
1.0
 40
1.0
 40
2.0
 40
2.0
 40
2.0
 40
3.0
 40
3.0
 40
3.0
 40
4.0
 40
4.0
 40
4.0
 40
5.0
 40
5.0
 40
5.0
 40
6.0
 40
6.0
 40
6.0
 40
7.0
 40
7.0
 40
7.0
 40
8.0
 40
8.0
 40
8.0
 40
9.0
 40
9.0
 40
9.0
 40
10.0
 40
10.0
 40
10.0
 40
11.0
 40
11.0
 40
11.0
 40
12.0
 40
12.0
 40
12.0
 40
12.0
 10
2.305555555555555
 20
3.054166581895616
 30
0.0
 10
2.42500008477105
 20
3.145833333333333
 30
0.0
 10
2.497222264607747
 20
3.352777693006727
 30
0.0
 10
2.69999991522895
 20
3.306944317287869
 30
0.0
 10
2.902777565850152
 20
3.26111094156901
 30
0.0
 10
3.024999830457899
 20
3.170833163791233
 30
0.0
 10
3.095833248562283
 20
3.181944317287869
 30
0.0
 10
3.16805542839898
 20
3.193055470784505
 30
0.0
 10
3.29305542839898
 20
3.141666624281141
 30
0.0
 10
3.368055555555555
 20
3.181944317287869
 30
0.0
 10
3.443055470784505
 20
3.222222010294596
 30
0.0
 10
3.606944613986545
 20
3.298610899183485
 30
0.0
 10
3.684722052680121
 20
3.10555542839898
 30
0.0
 10
3.763888888888889
 20
2.912499957614475
 30
0.0
 10
3.933333079020182
 20
2.738888846503364
 30
0.0
 10
3.926388634575738
 20
2.652777777777778
 30
0.0
 10
3.919444190131293
 20
2.568055470784505
 30
0.0
 10
3.858333163791233
 20
2.394444359673394
 30
0.0
 10
3.556944105360243
 20
2.258333418104383
 30
0.0
 10
3.255555258856879
 20
2.123611026340061
 30
0.0
 10
3.249999576144748
 20
2.104166666666667
 30
0.0
 10
3.219444062974718
 20
2.048611111111111
 30
0.0
 10
3.188888549804688
 20
1.993055555555555
 30
0.0
 10
3.149999618530273
 20
1.888888888888889
 30
0.0
 10
3.013888465033637
 20
1.901388804117838
 30
0.0
 10
2.877777311537001
 20
1.913888719346788
 30
0.0
 10
2.762499491373698
 20
2.106944190131293
 30
0.0
 10
2.738888422648112
 20
2.197221967909071
 30
0.0
 10
2.715277353922526
 20
2.287499745686849
 30
0.0
 10
2.558332867092556
 20
2.268055386013455
 30
0.0
 10
2.468055089314778
 20
2.368055131700304
 30
0.0
 10
2.377777311537001
 20
2.468055089314778
 30
0.0
 10
2.354166242811415
 20
2.680555131700304
 30
0.0
 10
2.343055089314778
 20
2.723610772026909
 30
0.0
 10
2.334722306993272
 20
2.768055597941081
 30
0.0
 10
2.151388804117838
 20
2.934722264607747
 30
0.0
 10
2.305555555555555
 20
3.054166581895616
 30
0.0
  0
HATCH
  5
85
330
80
100
AcDbEntity
  8
Calque 1
 62
     7
420
 15921906
100
AcDbHatch
 10
0.0
 20
0.0
 30
0.0
210
0.0
220
0.0
230
1.0
  2
SOLID
 70
     1
 71
     0
 91
        1
 92
        1
 93
        1
 72
     4
 94
        3
 73
     0
 74
     1
 95
       41
 96
       37
 40
0.0
 40
0.0
 40
0.0
 40
0.0
 40
1.0
 40
1.0
 40
1.0
 40
2.0
 40
2.0
 40
2.0
 40
3.0
 40
3.0
 40
3.0
 40
4.0
 40
4.0
 40
4.0
 40
5.0
 40
5.0
 40
5.0
 40
6.0
 40
6.0
 40
6.0
 40
7.0
 40
7.0
 40
7.0
 40
8.0
 40
8.0
 40
8.0
 40
9.0
 40
9.0
 40
9.0
 40
10.0
 40
10.0
 40
10.0
 40
11.0
 40
11.0
 40
11.0
 40
12.0
 40
12.0
 40
12.0
 40
12.0
 10
2.305555555555555
 20
3.054166581895616
 10
2.42500008477105
 20
3.145833333333333
 10
2.497222264607747
 20
3.352777693006727
 10
2.69999991522895
 20
3.306944317287869
 10
2.902777565850152
 20
3.26111094156901
 10
3.024999830457899
 20
3.170833163791233
 10
3.095833248562283
 20
3.181944317287869
 10
3.16805542839898
 20
3.193055470784505
 10
3.29305542839898
 20
3.141666624281141
 10
3.368055555555555
 20
3.181944317287869
 10
3.443055470784505
 20
3.222222010294596
 10
3.606944613986545
 20
3.298610899183485
 10
3.684722052680121
 20
3.10555542839898
 10
3.763888888888889
 20
2.912499957614475
 10
3.933333079020182
 20
2.738888846503364
 10
3.926388634575738
 20
2.652777777777778
 10
3.919444190131293
 20
2.568055470784505
 10
3.858333163791233
 20
2.394444359673394
 10
3.556944105360243
 20
2.258333418104383
 10
3.255555258856879
 20
2.123611026340061
 10
3.249999576144748
 20
2.104166666666667
 10
3.219444062974718
 20
2.048611111111111
 10
3.188888549804688
 20
1.993055555555555
 10
3.149999618530273
 20
1.888888888888889
 10
3.013888465033637
 20
1.901388804117838
 10
2.877777311537001
 20
1.913888719346788
 10
2.762499491373698
 20
2.106944190131293
 10
2.738888422648112
 20
2.197221967909071
 10
2.715277353922526
 20
2.287499745686849
 10
2.558332867092556
 20
2.268055386013455
 10
2.468055089314778
 20
2.368055131700304
 10
2.377777311537001
 20
2.468055089314778
 10
2.354166242811415
 20
2.680555131700304
 10
2.343055089314778
 20
2.723610772026909
 10
2.334722306993272
 20
2.768055597941081
 10
2.151388804117838
 20
2.934722264607747
 10
2.305555555555555
 20
3.054166581895616
 97
        0
 97
        0
 75
     2
 76
     1
 98
        0
  0
INSERT
  5
87
330
80
100
AcDbEntity
  8
Calque 1
100
AcDbBlockReference
  2
block 13
 10
0.0
 20
0.0
 30
0.0
  0
ENDBLK
  5
83
330
80
100
AcDbEntity
  8
0
100
AcDbBlockEnd
  0
BLOCK
  5
88
330
86
100
AcDbEntity
  8
0
100
AcDbBlockBegin
  2
block 13
 70
     0
 10
0.0
 20
0.0
 30
0.0
  3
block 13
  1

  0
INSERT
  5
8B
330
86
100
AcDbEntity
  8
Calque 1
100
AcDbBlockReference
  2
block 14
 10
0.0
 20
0.0
 30
0.0
  0
SPLINE
  5
9A
330
86
100
AcDbEntity
  8
Calque 1
370
     0
100
AcDbSpline
210
0.0
220
0.0
230
1.0
 70
    11
 71
     3
 72
    14
 73
    10
 74
     0
 42
0.0000000001
 43
0.0000000001
 12
1.0
 22
0.0
 32
0.0
 13
1.0
 23
0.0
 33
0.0
 40
0.0
 40
0.0
 40
0.0
 40
0.0
 40
1.0
 40
1.0
 40
1.0
 40
2.0
 40
2.0
 40
2.0
 40
3.0
 40
3.0
 40
3.0
 40
3.0
 10
2.984722137451172
 20
3.018055597941081
 30
0.0
 10
3.079166624281141
 20
2.98750008477105
 30
0.0
 10
3.148611068725586
 20
2.991666793823242
 30
0.0
 10
3.236111111111111
 20
3.022222306993272
 30
0.0
 10
3.323611153496636
 20
3.052777820163303
 30
0.0
 10
3.255555470784505
 20
2.891666836208767
 30
0.0
 10
3.134722179836697
 20
2.883333418104383
 30
0.0
 10
3.013888888888889
 20
2.873611026340061
 30
0.0
 10
2.911111195882161
 20
3.041666666666667
 30
0.0
 10
2.984722137451172
 20
3.018055597941081
 30
0.0
  0
HATCH
  5
9B
330
86
100
AcDbEntity
  8
Calque 1
 62
   178
420
   131587
100
AcDbHatch
 10
0.0
 20
0.0
 30
0.0
210
0.0
220
0.0
230
1.0
  2
SOLID
 70
     1
 71
     0
 91
        1
 92
        1
 93
        1
 72
     4
 94
        3
 73
     0
 74
     1
 95
       14
 96
       10
 40
0.0
 40
0.0
 40
0.0
 40
0.0
 40
1.0
 40
1.0
 40
1.0
 40
2.0
 40
2.0
 40
2.0
 40
3.0
 40
3.0
 40
3.0
 40
3.0
 10
2.984722137451172
 20
3.018055597941081
 10
3.079166624281141
 20
2.98750008477105
 10
3.148611068725586
 20
2.991666793823242
 10
3.236111111111111
 20
3.022222306993272
 10
3.323611153496636
 20
3.052777820163303
 10
3.255555470784505
 20
2.891666836208767
 10
3.134722179836697
 20
2.883333418104383
 10
3.013888888888889
 20
2.873611026340061
 10
2.911111195882161
 20
3.041666666666667
 10
2.984722137451172
 20
3.018055597941081
 97
        0
 97
        0
 75
     2
 76
     1
 98
        0
  0
SPLINE
  5
9C
330
86
100
AcDbEntity
  8
Calque 1
370
     0
100
AcDbSpline
210
0.0
220
0.0
230
1.0
 70
    11
 71
     3
 72
    17
 73
    13
 74
     0
 42
0.0000000001
 43
0.0000000001
 12
1.0
 22
0.0
 32
0.0
 13
1.0
 23
0.0
 33
0.0
 40
0.0
 40
0.0
 40
0.0
 40
0.0
 40
1.0
 40
1.0
 40
1.0
 40
2.0
 40
2.0
 40
2.0
 40
3.0
 40
3.0
 40
3.0
 40
4.0
 40
4.0
 40
4.0
 40
4.0
 10
3.127777735392252
 20
3.34305551317003
 30
0.0
 10
3.179937998453776
 20
3.34305551317003
 30
0.0
 10
3.222222222222222
 20
3.300771289401584
 30
0.0
 10
3.222222222222222
 20
3.248611026340061
 30
0.0
 10
3.222222222222222
 20
3.196450763278537
 30
0.0
 10
3.179937998453776
 20
3.154166539510091
 30
0.0
 10
3.127777735392252
 20
3.154166539510091
 30
0.0
 10
3.075617472330729
 20
3.154166539510091
 30
0.0
 10
3.033333248562283
 20
3.196450763278537
 30
0.0
 10
3.033333248562283
 20
3.248611026340061
 30
0.0
 10
3.033333248562283
 20
3.300771289401584
 30
0.0
 10
3.075617472330729
 20
3.34305551317003
 30
0.0
 10
3.127777735392252
 20
3.34305551317003
 30
0.0
  0
HATCH
  5
9D
330
86
100
AcDbEntity
  8
Calque 1
 62
    41
420
 15979690
100
AcDbHatch
 10
0.0
 20
0.0
 30
0.0
210
0.0
220
0.0
230
1.0
  2
SOLID
 70
     1
 71
     0
 91
        1
 92
        1
 93
        1
 72
     4
 94
        3
 73
     0
 74
     1
 95
       17
 96
       13
 40
0.0
 40
0.0
 40
0.0
 40
0.0
 40
1.0
 40
1.0
 40
1.0
 40
2.0
 40
2.0
 40
2.0
 40
3.0
 40
3.0
 40
3.0
 40
4.0
 40
4.0
 40
4.0
 40
4.0
 10
3.127777735392252
 20
3.34305551317003
 10
3.179937998453776
 20
3.34305551317003
 10
3.222222222222222
 20
3.300771289401584
 10
3.222222222222222
 20
3.248611026340061
 10
3.222222222222222
 20
3.196450763278537
 10
3.179937998453776
 20
3.154166539510091
 10
3.127777735392252
 20
3.154166539510091
 10
3.075617472330729
 20
3.154166539510091
 10
3.033333248562283
 20
3.196450763278537
 10
3.033333248562283
 20
3.248611026340061
 10
3.033333248562283
 20
3.300771289401584
 10
3.075617472330729
 20
3.34305551317003
 10
3.127777735392252
 20
3.34305551317003
 97
        0
 97
        0
 75
     2
 76
     1
 98
        0
  0
ENDBLK
  5
89
330
86
100
AcDbEntity
  8
0
100
AcDbBlockEnd
  0
BLOCK
  5
8C
330
8A
100
AcDbEntity
  8
0
100
AcDbBlockBegin
  2
block 14
 70
     0
 10
0.0
 20
0.0
 30
0.0
  3
block 14
  1

  0
INSERT
  5
8F
330
8A
100
AcDbEntity
  8
Calque 1
100
AcDbBlockReference
  2
block 15
 10
0.0
 20
0.0
 30
0.0
  0
INSERT
  5
95
330
8A
100
AcDbEntity
  8
Calque 1
100
AcDbBlockReference
  2
block 16
 10
0.0
 20
0.0
 30
0.0
  0
ENDBLK
  5
8D
330
8A
100
AcDbEntity
  8
0
100
AcDbBlockEnd
  0
BLOCK
  5
90
330
8E
100
AcDbEntity
  8
0
100
AcDbBlockBegin
  2
block 15
 70
     0
 10
0.0
 20
0.0
 30
0.0
  3
block 15
  1

  0
SPLINE
  5
92
330
8E
100
AcDbEntity
  8
Calque 1
370
     0
100
AcDbSpline
210
0.0
220
0.0
230
1.0
 70
    11
 71
     3
 72
    17
 73
    13
 74
     0
 42
0.0000000001
 43
0.0000000001
 12
1.0
 22
0.0
 32
0.0
 13
1.0
 23
0.0
 33
0.0
 40
0.0
 40
0.0
 40
0.0
 40
0.0
 40
1.0
 40
1.0
 40
1.0
 40
2.0
 40
2.0
 40
2.0
 40
3.0
 40
3.0
 40
3.0
 40
4.0
 40
4.0
 40
4.0
 40
4.0
 10
2.811111026340061
 20
3.320833418104383
 30
0.0
 10
2.811111026340061
 20
3.320833418104383
 30
0.0
 10
2.795833163791233
 20
3.334722306993272
 30
0.0
 10
2.795833163791233
 20
3.334722306993272
 30
0.0
 10
2.847222010294596
 20
3.388888888888889
 30
0.0
 10
2.956944359673394
 20
3.438888973659939
 30
0.0
 10
3.037499745686849
 20
3.383333418104383
 30
0.0
 10
3.037499745686849
 20
3.383333418104383
 30
0.0
 10
3.026388592190213
 20
3.366666793823242
 30
0.0
 10
3.026388592190213
 20
3.366666793823242
 30
0.0
 10
2.955555597941081
 20
3.416666666666667
 30
0.0
 10
2.858333375718858
 20
3.369444529215495
 30
0.0
 10
2.811111026340061
 20
3.320833418104383
 30
0.0
  0
HATCH
  5
93
330
8E
100
AcDbEntity
  8
Calque 1
 62
   178
420
   131587
100
AcDbHatch
 10
0.0
 20
0.0
 30
0.0
210
0.0
220
0.0
230
1.0
  2
SOLID
 70
     1
 71
     0
 91
        1
 92
        1
 93
        1
 72
     4
 94
        3
 73
     0
 74
     1
 95
       17
 96
       13
 40
0.0
 40
0.0
 40
0.0
 40
0.0
 40
1.0
 40
1.0
 40
1.0
 40
2.0
 40
2.0
 40
2.0
 40
3.0
 40
3.0
 40
3.0
 40
4.0
 40
4.0
 40
4.0
 40
4.0
 10
2.811111026340061
 20
3.320833418104383
 10
2.811111026340061
 20
3.320833418104383
 10
2.795833163791233
 20
3.334722306993272
 10
2.795833163791233
 20
3.334722306993272
 10
2.847222010294596
 20
3.388888888888889
 10
2.956944359673394
 20
3.438888973659939
 10
3.037499745686849
 20
3.383333418104383
 10
3.037499745686849
 20
3.383333418104383
 10
3.026388592190213
 20
3.366666793823242
 10
3.026388592190213
 20
3.366666793823242
 10
2.955555597941081
 20
3.416666666666667
 10
2.858333375718858
 20
3.369444529215495
 10
2.811111026340061
 20
3.320833418104383
 97
        0
 97
        0
 75
     2
 76
     1
 98
        0
  0
ENDBLK
  5
91
330
8E
100
AcDbEntity
  8
0
100
AcDbBlockEnd
  0
BLOCK
  5
96
330
94
100
AcDbEntity
  8
0
100
AcDbBlockBegin
  2
block 16
 70
     0
 10
0.0
 20
0.0
 30
0.0
  3
block 16
  1

  0
SPLINE
  5
98
330
94
100
AcDbEntity
  8
Calque 1
370
     0
100
AcDbSpline
210
0.0
220
0.0
230
1.0
 70
    11
 71
     3
 72
    17
 73
    13
 74
     0
 42
0.0000000001
 43
0.0000000001
 12
1.0
 22
0.0
 32
0.0
 13
1.0
 23
0.0
 33
0.0
 40
0.0
 40
0.0
 40
0.0
 40
0.0
 40
1.0
 40
1.0
 40
1.0
 40
2.0
 40
2.0
 40
2.0
 40
3.0
 40
3.0
 40
3.0
 40
4.0
 40
4.0
 40
4.0
 40
4.0
 10
3.454166624281141
 20
3.363888846503364
 30
0.0
 10
3.402777777777778
 20
3.406944486829969
 30
0.0
 10
3.301388846503364
 20
3.443055470784505
 30
0.0
 10
3.236111111111111
 20
3.386111153496636
 30
0.0
 10
3.236111111111111
 20
3.386111153496636
 30
0.0
 10
3.222222222222222
 20
3.401389016045464
 30
0.0
 10
3.222222222222222
 20
3.401389016045464
 30
0.0
 10
3.295833375718858
 20
3.465277989705403
 30
0.0
 10
3.409722222222222
 20
3.427777820163303
 30
0.0
 10
3.466666751437717
 20
3.379166709052192
 30
0.0
 10
3.466666751437717
 20
3.379166709052192
 30
0.0
 10
3.454166624281141
 20
3.363888846503364
 30
0.0
 10
3.454166624281141
 20
3.363888846503364
 30
0.0
  0
HATCH
  5
99
330
94
100
AcDbEntity
  8
Calque 1
 62
   178
420
   131587
100
AcDbHatch
 10
0.0
 20
0.0
 30
0.0
210
0.0
220
0.0
230
1.0
  2
SOLID
 70
     1
 71
     0
 91
        1
 92
        1
 93
        1
 72
     4
 94
        3
 73
     0
 74
     1
 95
       17
 96
       13
 40
0.0
 40
0.0
 40
0.0
 40
0.0
 40
1.0
 40
1.0
 40
1.0
 40
2.0
 40
2.0
 40
2.0
 40
3.0
 40
3.0
 40
3.0
 40
4.0
 40
4.0
 40
4.0
 40
4.0
 10
3.454166624281141
 20
3.363888846503364
 10
3.402777777777778
 20
3.406944486829969
 10
3.301388846503364
 20
3.443055470784505
 10
3.236111111111111
 20
3.386111153496636
 10
3.236111111111111
 20
3.386111153496636
 10
3.222222222222222
 20
3.401389016045464
 10
3.222222222222222
 20
3.401389016045464
 10
3.295833375718858
 20
3.465277989705403
 10
3.409722222222222
 20
3.427777820163303
 10
3.466666751437717
 20
3.379166709052192
 10
3.466666751437717
 20
3.379166709052192
 10
3.454166624281141
 20
3.363888846503364
 10
3.454166624281141
 20
3.363888846503364
 97
        0
 97
        0
 75
     2
 76
     1
 98
        0
  0
ENDBLK
  5
97
330
94
100
AcDbEntity
  8
0
100
AcDbBlockEnd
  0
BLOCK
  5
A0
330
9E
100
AcDbEntity
  8
0
100
AcDbBlockBegin
  2
block 17
 70
     0
 10
0.0
 20
0.0
 30
0.0
  3
block 17
  1

  0
SPLINE
  5
A2
330
9E
100
AcDbEntity
  8
Calque 1
370
     0
100
AcDbSpline
210
0.0
220
0.0
230
1.0
 70
    11
 71
     3
 72
    23
 73
    19
 74
     0
 42
0.0000000001
 43
0.0000000001
 12
1.0
 22
0.0
 32
0.0
 13
1.0
 23
0.0
 33
0.0
 40
0.0
 40
0.0
 40
0.0
 40
0.0
 40
1.0
 40
1.0
 40
1.0
 40
2.0
 40
2.0
 40
2.0
 40
3.0
 40
3.0
 40
3.0
 40
4.0
 40
4.0
 40
4.0
 40
5.0
 40
5.0
 40
5.0
 40
6.0
 40
6.0
 40
6.0
 40
6.0
 10
2.458333333333333
 20
3.455555597941081
 30
0.0
 10
2.352777693006727
 20
3.597222222222222
 30
0.0
 10
2.147222306993272
 20
3.254166709052192
 30
0.0
 10
2.098611195882161
 20
3.320833418104383
 30
0.0
 10
2.05000008477105
 20
3.387500127156575
 30
0.0
 10
2.056944529215495
 20
3.602777904934353
 30
0.0
 10
2.176389058430989
 20
3.681944529215495
 30
0.0
 10
2.295833587646484
 20
3.761111153496636
 30
0.0
 10
2.222222434149848
 20
3.9750001695421
 30
0.0
 10
2.594444698757596
 20
4.022222306993273
 30
0.0
 10
2.968055725097656
 20
4.070833418104383
 30
0.0
 10
3.305555767483181
 20
4.122222264607747
 30
0.0
 10
3.450000339084201
 20
3.620833502875434
 30
0.0
 10
3.179167005750868
 20
3.620833502875434
 30
0.0
 10
2.761111365424262
 20
3.579166836208767
 30
0.0
 10
2.644444783528646
 20
3.512500127156575
 30
0.0
 10
2.526388804117838
 20
3.445833418104383
 30
0.0
 10
2.486111111111111
 20
3.418055640326606
 30
0.0
 10
2.458333333333333
 20
3.455555597941081
 30
0.0
  0
HATCH
  5
A3
330
9E
100
AcDbEntity
  8
Calque 1
 62
    24
420
 10427945
100
AcDbHatch
 10
0.0
 20
0.0
 30
0.0
210
0.0
220
0.0
230
1.0
  2
SOLID
 70
     1
 71
     0
 91
        1
 92
        1
 93
        1
 72
     4
 94
        3
 73
     0
 74
     1
 95
       23
 96
       19
 40
0.0
 40
0.0
 40
0.0
 40
0.0
 40
1.0
 40
1.0
 40
1.0
 40
2.0
 40
2.0
 40
2.0
 40
3.0
 40
3.0
 40
3.0
 40
4.0
 40
4.0
 40
4.0
 40
5.0
 40
5.0
 40
5.0
 40
6.0
 40
6.0
 40
6.0
 40
6.0
 10
2.458333333333333
 20
3.455555597941081
 10
2.352777693006727
 20
3.597222222222222
 10
2.147222306993272
 20
3.254166709052192
 10
2.098611195882161
 20
3.320833418104383
 10
2.05000008477105
 20
3.387500127156575
 10
2.056944529215495
 20
3.602777904934353
 10
2.176389058430989
 20
3.681944529215495
 10
2.295833587646484
 20
3.761111153496636
 10
2.222222434149848
 20
3.9750001695421
 10
2.594444698757596
 20
4.022222306993273
 10
2.968055725097656
 20
4.070833418104383
 10
3.305555767483181
 20
4.122222264607747
 10
3.450000339084201
 20
3.620833502875434
 10
3.179167005750868
 20
3.620833502875434
 10
2.761111365424262
 20
3.579166836208767
 10
2.644444783528646
 20
3.512500127156575
 10
2.526388804117838
 20
3.445833418104383
 10
2.486111111111111
 20
3.418055640326606
 10
2.458333333333333
 20
3.455555597941081
 97
        0
 97
        0
 75
     2
 76
     1
 98
        0
  0
SPLINE
  5
A4
330
9E
100
AcDbEntity
  8
Calque 1
370
     0
100
AcDbSpline
210
0.0
220
0.0
230
1.0
 70
    11
 71
     3
 72
    32
 73
    28
 74
     0
 42
0.0000000001
 43
0.0000000001
 12
1.0
 22
0.0
 32
0.0
 13
1.0
 23
0.0
 33
0.0
 40
0.0
 40
0.0
 40
0.0
 40
0.0
 40
1.0
 40
1.0
 40
1.0
 40
2.0
 40
2.0
 40
2.0
 40
3.0
 40
3.0
 40
3.0
 40
4.0
 40
4.0
 40
4.0
 40
5.0
 40
5.0
 40
5.0
 40
6.0
 40
6.0
 40
6.0
 40
7.0
 40
7.0
 40
7.0
 40
8.0
 40
8.0
 40
8.0
 40
9.0
 40
9.0
 40
9.0
 40
9.0
 10
2.476388931274414
 20
3.204166624281141
 30
0.0
 10
2.329166624281141
 20
3.255555470784505
 30
0.0
 10
2.238888846503364
 20
3.384722179836697
 30
0.0
 10
2.523611068725586
 20
3.556944317287869
 30
0.0
 10
2.808333290947808
 20
3.727777693006727
 30
0.0
 10
2.801388846503364
 20
3.624999788072374
 30
0.0
 10
3.023611068725586
 20
3.690277735392252
 30
0.0
 10
3.131944444444444
 20
3.722222222222222
 30
0.0
 10
3.23055542839898
 20
3.734722137451172
 30
0.0
 10
3.319444444444444
 20
3.695833206176758
 30
0.0
 10
3.408333460489909
 20
3.656944274902344
 30
0.0
 10
3.5
 20
3.652777565850152
 30
0.0
 10
3.609722137451172
 20
3.584722095065647
 30
0.0
 10
3.719444274902344
 20
3.516666624281141
 30
0.0
 10
3.719444274902344
 20
3.204166624281141
 30
0.0
 10
3.605555640326606
 20
3.181944317287869
 30
0.0
 10
3.491667005750868
 20
3.159722010294596
 30
0.0
 10
3.51944457160102
 20
3.390277650621202
 30
0.0
 10
3.468055725097656
 20
3.454166624281141
 30
0.0
 10
3.416666878594292
 20
3.518055597941081
 30
0.0
 10
3.19444465637207
 20
3.447222179836697
 30
0.0
 10
3.154166751437717
 20
3.491666581895616
 30
0.0
 10
3.113888846503364
 20
3.536110983954535
 30
0.0
 10
2.926389058430989
 20
3.54305542839898
 30
0.0
 10
2.801389058430989
 20
3.466666539510091
 30
0.0
 10
2.677777820163303
 20
3.391666624281141
 30
0.0
 10
2.595833248562283
 20
3.163888931274414
 30
0.0
 10
2.476388931274414
 20
3.204166624281141
 30
0.0
  0
HATCH
  5
A5
330
9E
100
AcDbEntity
  8
Calque 1
 62
   254
420
 15197926
100
AcDbHatch
 10
0.0
 20
0.0
 30
0.0
210
0.0
220
0.0
230
1.0
  2
SOLID
 70
     1
 71
     0
 91
        1
 92
        1
 93
        1
 72
     4
 94
        3
 73
     0
 74
     1
 95
       32
 96
       28
 40
0.0
 40
0.0
 40
0.0
 40
0.0
 40
1.0
 40
1.0
 40
1.0
 40
2.0
 40
2.0
 40
2.0
 40
3.0
 40
3.0
 40
3.0
 40
4.0
 40
4.0
 40
4.0
 40
5.0
 40
5.0
 40
5.0
 40
6.0
 40
6.0
 40
6.0
 40
7.0
 40
7.0
 40
7.0
 40
8.0
 40
8.0
 40
8.0
 40
9.0
 40
9.0
 40
9.0
 40
9.0
 10
2.476388931274414
 20
3.204166624281141
 10
2.329166624281141
 20
3.255555470784505
 10
2.238888846503364
 20
3.384722179836697
 10
2.523611068725586
 20
3.556944317287869
 10
2.808333290947808
 20
3.727777693006727
 10
2.801388846503364
 20
3.624999788072374
 10
3.023611068725586
 20
3.690277735392252
 10
3.131944444444444
 20
3.722222222222222
 10
3.23055542839898
 20
3.734722137451172
 10
3.319444444444444
 20
3.695833206176758
 10
3.408333460489909
 20
3.656944274902344
 10
3.5
 20
3.652777565850152
 10
3.609722137451172
 20
3.584722095065647
 10
3.719444274902344
 20
3.516666624281141
 10
3.719444274902344
 20
3.204166624281141
 10
3.605555640326606
 20
3.181944317287869
 10
3.491667005750868
 20
3.159722010294596
 10
3.51944457160102
 20
3.390277650621202
 10
3.468055725097656
 20
3.454166624281141
 10
3.416666878594292
 20
3.518055597941081
 10
3.19444465637207
 20
3.447222179836697
 10
3.154166751437717
 20
3.491666581895616
 10
3.113888846503364
 20
3.536110983954535
 10
2.926389058430989
 20
3.54305542839898
 10
2.801389058430989
 20
3.466666539510091
 10
2.677777820163303
 20
3.391666624281141
 10
2.595833248562283
 20
3.163888931274414
 10
2.476388931274414
 20
3.204166624281141
 97
        0
 97
        0
 75
     2
 76
     1
 98
        0
  0
SPLINE
  5
A6
330
9E
100
AcDbEntity
  8
Calque 1
370
     0
100
AcDbSpline
210
0.0
220
0.0
230
1.0
 70
    11
 71
     3
 72
    20
 73
    16
 74
     0
 42
0.0000000001
 43
0.0000000001
 12
1.0
 22
0.0
 32
0.0
 13
1.0
 23
0.0
 33
0.0
 40
0.0
 40
0.0
 40
0.0
 40
0.0
 40
1.0
 40
1.0
 40
1.0
 40
2.0
 40
2.0
 40
2.0
 40
3.0
 40
3.0
 40
3.0
 40
4.0
 40
4.0
 40
4.0
 40
5.0
 40
5.0
 40
5.0
 40
5.0
 10
2.005555470784505
 20
3.434722264607747
 30
0.0
 10
2.033333248562283
 20
3.477777904934353
 30
0.0
 10
2.115277608235677
 20
3.459722306993272
 30
0.0
 10
2.15555551317003
 20
3.465277777777778
 30
0.0
 10
2.195833206176758
 20
3.470833248562283
 30
0.0
 10
2.229166666666667
 20
3.462500042385525
 30
0.0
 10
2.247222264607747
 20
3.420833375718858
 30
0.0
 10
2.263888888888889
 20
3.380555682712131
 30
0.0
 10
2.315277735392252
 20
3.286111195882161
 30
0.0
 10
2.198611153496636
 20
3.240277820163303
 30
0.0
 10
2.083333333333333
 20
3.195833418104383
 30
0.0
 10
2.008333418104383
 20
3.236111111111111
 30
0.0
 10
2.004166709052192
 20
3.306944529215495
 30
0.0
 10
2.0
 20
3.377777947319878
 30
0.0
 10
1.991666581895616
 20
3.413888931274414
 30
0.0
 10
2.005555470784505
 20
3.434722264607747
 30
0.0
  0
HATCH
  5
A7
330
9E
100
AcDbEntity
  8
Calque 1
 62
   254
420
 15197926
100
AcDbHatch
 10
0.0
 20
0.0
 30
0.0
210
0.0
220
0.0
230
1.0
  2
SOLID
 70
     1
 71
     0
 91
        1
 92
        1
 93
        1
 72
     4
 94
        3
 73
     0
 74
     1
 95
       20
 96
       16
 40
0.0
 40
0.0
 40
0.0
 40
0.0
 40
1.0
 40
1.0
 40
1.0
 40
2.0
 40
2.0
 40
2.0
 40
3.0
 40
3.0
 40
3.0
 40
4.0
 40
4.0
 40
4.0
 40
5.0
 40
5.0
 40
5.0
 40
5.0
 10
2.005555470784505
 20
3.434722264607747
 10
2.033333248562283
 20
3.477777904934353
 10
2.115277608235677
 20
3.459722306993272
 10
2.15555551317003
 20
3.465277777777778
 10
2.195833206176758
 20
3.470833248562283
 10
2.229166666666667
 20
3.462500042385525
 10
2.247222264607747
 20
3.420833375718858
 10
2.263888888888889
 20
3.380555682712131
 10
2.315277735392252
 20
3.286111195882161
 10
2.198611153496636
 20
3.240277820163303
 10
2.083333333333333
 20
3.195833418104383
 10
2.008333418104383
 20
3.236111111111111
 10
2.004166709052192
 20
3.306944529215495
 10
2.0
 20
3.377777947319878
 10
1.991666581895616
 20
3.413888931274414
 10
2.005555470784505
 20
3.434722264607747
 97
        0
 97
        0
 75
     2
 76
     1
 98
        0
  0
ENDBLK
  5
A1
330
9E
100
AcDbEntity
  8
0
100
AcDbBlockEnd
  0
BLOCK
  5
AA
330
A8
100
AcDbEntity
  8
0
100
AcDbBlockBegin
  2
block 18
 70
     0
 10
0.0
 20
0.0
 30
0.0
  3
block 18
  1

  0
SPLINE
  5
AC
330
A8
100
AcDbEntity
  8
Calque 1
370
     0
100
AcDbSpline
210
0.0
220
0.0
230
1.0
 70
    11
 71
     3
 72
    17
 73
    13
 74
     0
 42
0.0000000001
 43
0.0000000001
 12
1.0
 22
0.0
 32
0.0
 13
1.0
 23
0.0
 33
0.0
 40
0.0
 40
0.0
 40
0.0
 40
0.0
 40
1.0
 40
1.0
 40
1.0
 40
2.0
 40
2.0
 40
2.0
 40
3.0
 40
3.0
 40
3.0
 40
4.0
 40
4.0
 40
4.0
 40
4.0
 10
1.46805551317003
 20
3.644444359673394
 30
0.0
 10
1.381944444444444
 20
3.644444359673394
 30
0.0
 10
1.311111026340061
 20
3.57361094156901
 30
0.0
 10
1.311111026340061
 20
3.487499872843424
 30
0.0
 10
1.311111026340061
 20
3.401388804117838
 30
0.0
 10
1.381944338480631
 20
3.330555386013454
 30
0.0
 10
1.46805551317003
 20
3.330555386013454
 30
0.0
 10
1.554166581895616
 20
3.330555386013454
 30
0.0
 10
1.625
 20
3.401388804117838
 30
0.0
 10
1.625
 20
3.487499872843424
 30
0.0
 10
1.625
 20
3.57499991522895
 30
0.0
 10
1.554166687859429
 20
3.644444359673394
 30
0.0
 10
1.46805551317003
 20
3.644444359673394
 30
0.0
  0
HATCH
  5
AD
330
A8
100
AcDbEntity
  8
Calque 1
 62
     7
420
 15921906
100
AcDbHatch
 10
0.0
 20
0.0
 30
0.0
210
0.0
220
0.0
230
1.0
  2
SOLID
 70
     1
 71
     0
 91
        1
 92
        1
 93
        1
 72
     4
 94
        3
 73
     0
 74
     1
 95
       17
 96
       13
 40
0.0
 40
0.0
 40
0.0
 40
0.0
 40
1.0
 40
1.0
 40
1.0
 40
2.0
 40
2.0
 40
2.0
 40
3.0
 40
3.0
 40
3.0
 40
4.0
 40
4.0
 40
4.0
 40
4.0
 10
1.46805551317003
 20
3.644444359673394
 10
1.381944444444444
 20
3.644444359673394
 10
1.311111026340061
 20
3.57361094156901
 10
1.311111026340061
 20
3.487499872843424
 10
1.311111026340061
 20
3.401388804117838
 10
1.381944338480631
 20
3.330555386013454
 10
1.46805551317003
 20
3.330555386013454
 10
1.554166581895616
 20
3.330555386013454
 10
1.625
 20
3.401388804117838
 10
1.625
 20
3.487499872843424
 10
1.625
 20
3.57499991522895
 10
1.554166687859429
 20
3.644444359673394
 10
1.46805551317003
 20
3.644444359673394
 97
        0
 97
        0
 75
     2
 76
     1
 98
        0
  0
SPLINE
  5
AE
330
A8
100
AcDbEntity
  8
Calque 1
370
     0
100
AcDbSpline
210
0.0
220
0.0
230
1.0
 70
    11
 71
     3
 72
    17
 73
    13
 74
     0
 42
0.0000000001
 43
0.0000000001
 12
1.0
 22
0.0
 32
0.0
 13
1.0
 23
0.0
 33
0.0
 40
0.0
 40
0.0
 40
0.0
 40
0.0
 40
1.0
 40
1.0
 40
1.0
 40
2.0
 40
2.0
 40
2.0
 40
3.0
 40
3.0
 40
3.0
 40
4.0
 40
4.0
 40
4.0
 40
4.0
 10
1.747222264607747
 20
4.502777735392252
 30
0.0
 10
1.661111195882161
 20
4.502777735392252
 30
0.0
 10
1.590277777777778
 20
4.431944423251681
 30
0.0
 10
1.590277777777778
 20
4.345833248562283
 30
0.0
 10
1.590277777777778
 20
4.259722179836697
 30
0.0
 10
1.661111089918348
 20
4.188888761732313
 30
0.0
 10
1.747222264607747
 20
4.188888761732313
 30
0.0
 10
1.833333333333333
 20
4.188888761732313
 30
0.0
 10
1.904166751437717
 20
4.259722073872884
 30
0.0
 10
1.904166751437717
 20
4.345833248562283
 30
0.0
 10
1.904166751437717
 20
4.433333290947808
 30
0.0
 10
1.833333333333333
 20
4.502777735392252
 30
0.0
 10
1.747222264607747
 20
4.502777735392252
 30
0.0
  0
HATCH
  5
AF
330
A8
100
AcDbEntity
  8
Calque 1
 62
     7
420
 15921906
100
AcDbHatch
 10
0.0
 20
0.0
 30
0.0
210
0.0
220
0.0
230
1.0
  2
SOLID
 70
     1
 71
     0
 91
        1
 92
        1
 93
        1
 72
     4
 94
        3
 73
     0
 74
     1
 95
       17
 96
       13
 40
0.0
 40
0.0
 40
0.0
 40
0.0
 40
1.0
 40
1.0
 40
1.0
 40
2.0
 40
2.0
 40
2.0
 40
3.0
 40
3.0
 40
3.0
 40
4.0
 40
4.0
 40
4.0
 40
4.0
 10
1.747222264607747
 20
4.502777735392252
 10
1.661111195882161
 20
4.502777735392252
 10
1.590277777777778
 20
4.431944423251681
 10
1.590277777777778
 20
4.345833248562283
 10
1.590277777777778
 20
4.259722179836697
 10
1.661111089918348
 20
4.188888761732313
 10
1.747222264607747
 20
4.188888761732313
 10
1.833333333333333
 20
4.188888761732313
 10
1.904166751437717
 20
4.259722073872884
 10
1.904166751437717
 20
4.345833248562283
 10
1.904166751437717
 20
4.433333290947808
 10
1.833333333333333
 20
4.502777735392252
 10
1.747222264607747
 20
4.502777735392252
 97
        0
 97
        0
 75
     2
 76
     1
 98
        0
  0
SPLINE
  5
B0
330
A8
100
AcDbEntity
  8
Calque 1
370
     0
100
AcDbSpline
210
0.0
220
0.0
230
1.0
 70
    11
 71
     3
 72
    17
 73
    13
 74
     0
 42
0.0000000001
 43
0.0000000001
 12
1.0
 22
0.0
 32
0.0
 13
1.0
 23
0.0
 33
0.0
 40
0.0
 40
0.0
 40
0.0
 40
0.0
 40
1.0
 40
1.0
 40
1.0
 40
2.0
 40
2.0
 40
2.0
 40
3.0
 40
3.0
 40
3.0
 40
4.0
 40
4.0
 40
4.0
 40
4.0
 10
2.520833333333333
 20
5.099999957614474
 30
0.0
 10
2.434722264607747
 20
5.099999957614474
 30
0.0
 10
2.363888846503364
 20
5.029166645473904
 30
0.0
 10
2.363888846503364
 20
4.943055470784505
 30
0.0
 10
2.363888846503364
 20
4.856944402058919
 30
0.0
 10
2.434722264607747
 20
4.786110983954535
 30
0.0
 10
2.520833333333333
 20
4.786110983954535
 30
0.0
 10
2.606944402058919
 20
4.786110983954535
 30
0.0
 10
2.677777820163303
 20
4.856944296095106
 30
0.0
 10
2.677777820163303
 20
4.943055470784505
 30
0.0
 10
2.677777820163303
 20
5.029166645473904
 30
0.0
 10
2.606944402058919
 20
5.099999957614474
 30
0.0
 10
2.520833333333333
 20
5.099999957614474
 30
0.0
  0
HATCH
  5
B1
330
A8
100
AcDbEntity
  8
Calque 1
 62
     7
420
 15921906
100
AcDbHatch
 10
0.0
 20
0.0
 30
0.0
210
0.0
220
0.0
230
1.0
  2
SOLID
 70
     1
 71
     0
 91
        1
 92
        1
 93
        1
 72
     4
 94
        3
 73
     0
 74
     1
 95
       17
 96
       13
 40
0.0
 40
0.0
 40
0.0
 40
0.0
 40
1.0
 40
1.0
 40
1.0
 40
2.0
 40
2.0
 40
2.0
 40
3.0
 40
3.0
 40
3.0
 40
4.0
 40
4.0
 40
4.0
 40
4.0
 10
2.520833333333333
 20
5.099999957614474
 10
2.434722264607747
 20
5.099999957614474
 10
2.363888846503364
 20
5.029166645473904
 10
2.363888846503364
 20
4.943055470784505
 10
2.363888846503364
 20
4.856944402058919
 10
2.434722264607747
 20
4.786110983954535
 10
2.520833333333333
 20
4.786110983954535
 10
2.606944402058919
 20
4.786110983954535
 10
2.677777820163303
 20
4.856944296095106
 10
2.677777820163303
 20
4.943055470784505
 10
2.677777820163303
 20
5.029166645473904
 10
2.606944402058919
 20
5.099999957614474
 10
2.520833333333333
 20
5.099999957614474
 97
        0
 97
        0
 75
     2
 76
     1
 98
        0
  0
SPLINE
  5
B2
330
A8
100
AcDbEntity
  8
Calque 1
370
     0
100
AcDbSpline
210
0.0
220
0.0
230
1.0
 70
    11
 71
     3
 72
    17
 73
    13
 74
     0
 42
0.0000000001
 43
0.0000000001
 12
1.0
 22
0.0
 32
0.0
 13
1.0
 23
0.0
 33
0.0
 40
0.0
 40
0.0
 40
0.0
 40
0.0
 40
1.0
 40
1.0
 40
1.0
 40
2.0
 40
2.0
 40
2.0
 40
3.0
 40
3.0
 40
3.0
 40
4.0
 40
4.0
 40
4.0
 40
4.0
 10
3.448611153496636
 20
5.099999957614474
 30
0.0
 10
3.36250008477105
 20
5.099999957614474
 30
0.0
 10
3.291666666666667
 20
5.029166645473904
 30
0.0
 10
3.291666666666667
 20
4.943055470784505
 30
0.0
 10
3.291666666666667
 20
4.856944402058919
 30
0.0
 10
3.36250008477105
 20
4.786110983954535
 30
0.0
 10
3.448611153496636
 20
4.786110983954535
 30
0.0
 10
3.534722222222222
 20
4.786110983954535
 30
0.0
 10
3.605555640326606
 20
4.856944296095106
 30
0.0
 10
3.605555640326606
 20
4.943055470784505
 30
0.0
 10
3.605555640326606
 20
5.029166645473904
 30
0.0
 10
3.534722222222222
 20
5.099999957614474
 30
0.0
 10
3.448611153496636
 20
5.099999957614474
 30
0.0
  0
HATCH
  5
B3
330
A8
100
AcDbEntity
  8
Calque 1
 62
     7
420
 15921906
100
AcDbHatch
 10
0.0
 20
0.0
 30
0.0
210
0.0
220
0.0
230
1.0
  2
SOLID
 70
     1
 71
     0
 91
        1
 92
        1
 93
        1
 72
     4
 94
        3
 73
     0
 74
     1
 95
       17
 96
       13
 40
0.0
 40
0.0
 40
0.0
 40
0.0
 40
1.0
 40
1.0
 40
1.0
 40
2.0
 40
2.0
 40
2.0
 40
3.0
 40
3.0
 40
3.0
 40
4.0
 40
4.0
 40
4.0
 40
4.0
 10
3.448611153496636
 20
5.099999957614474
 10
3.36250008477105
 20
5.099999957614474
 10
3.291666666666667
 20
5.029166645473904
 10
3.291666666666667
 20
4.943055470784505
 10
3.291666666666667
 20
4.856944402058919
 10
3.36250008477105
 20
4.786110983954535
 10
3.448611153496636
 20
4.786110983954535
 10
3.534722222222222
 20
4.786110983954535
 10
3.605555640326606
 20
4.856944296095106
 10
3.605555640326606
 20
4.943055470784505
 10
3.605555640326606
 20
5.029166645473904
 10
3.534722222222222
 20
5.099999957614474
 10
3.448611153496636
 20
5.099999957614474
 97
        0
 97
        0
 75
     2
 76
     1
 98
        0
  0
SPLINE
  5
B4
330
A8
100
AcDbEntity
  8
Calque 1
370
     0
100
AcDbSpline
210
0.0
220
0.0
230
1.0
 70
    11
 71
     3
 72
    17
 73
    13
 74
     0
 42
0.0000000001
 43
0.0000000001
 12
1.0
 22
0.0
 32
0.0
 13
1.0
 23
0.0
 33
0.0
 40
0.0
 40
0.0
 40
0.0
 40
0.0
 40
1.0
 40
1.0
 40
1.0
 40
2.0
 40
2.0
 40
2.0
 40
3.0
 40
3.0
 40
3.0
 40
4.0
 40
4.0
 40
4.0
 40
4.0
 10
4.148611280653212
 20
4.502777735392252
 30
0.0
 10
4.0625
 20
4.502777735392252
 30
0.0
 10
3.991667005750868
 20
4.431944423251681
 30
0.0
 10
3.991667005750868
 20
4.345833248562283
 30
0.0
 10
3.991667005750868
 20
4.259722179836697
 30
0.0
 10
4.062500423855251
 20
4.188888761732313
 30
0.0
 10
4.148611280653212
 20
4.188888761732313
 30
0.0
 10
4.234722561306423
 20
4.188888761732313
 30
0.0
 10
4.305555555555555
 20
4.259722073872884
 30
0.0
 10
4.305555555555555
 20
4.345833248562283
 30
0.0
 10
4.305555555555555
 20
4.433333290947808
 30
0.0
 10
4.236111111111111
 20
4.502777735392252
 30
0.0
 10
4.148611280653212
 20
4.502777735392252
 30
0.0
  0
HATCH
  5
B5
330
A8
100
AcDbEntity
  8
Calque 1
 62
     7
420
 15921906
100
AcDbHatch
 10
0.0
 20
0.0
 30
0.0
210
0.0
220
0.0
230
1.0
  2
SOLID
 70
     1
 71
     0
 91
        1
 92
        1
 93
        1
 72
     4
 94
        3
 73
     0
 74
     1
 95
       17
 96
       13
 40
0.0
 40
0.0
 40
0.0
 40
0.0
 40
1.0
 40
1.0
 40
1.0
 40
2.0
 40
2.0
 40
2.0
 40
3.0
 40
3.0
 40
3.0
 40
4.0
 40
4.0
 40
4.0
 40
4.0
 10
4.148611280653212
 20
4.502777735392252
 10
4.0625
 20
4.502777735392252
 10
3.991667005750868
 20
4.431944423251681
 10
3.991667005750868
 20
4.345833248562283
 10
3.991667005750868
 20
4.259722179836697
 10
4.062500423855251
 20
4.188888761732313
 10
4.148611280653212
 20
4.188888761732313
 10
4.234722561306423
 20
4.188888761732313
 10
4.305555555555555
 20
4.259722073872884
 10
4.305555555555555
 20
4.345833248562283
 10
4.305555555555555
 20
4.433333290947808
 10
4.236111111111111
 20
4.502777735392252
 10
4.148611280653212
 20
4.502777735392252
 97
        0
 97
        0
 75
     2
 76
     1
 98
        0
  0
SPLINE
  5
B6
330
A8
100
AcDbEntity
  8
Calque 1
370
     0
100
AcDbSpline
210
0.0
220
0.0
230
1.0
 70
    11
 71
     3
 72
    17
 73
    13
 74
     0
 42
0.0000000001
 43
0.0000000001
 12
1.0
 22
0.0
 32
0.0
 13
1.0
 23
0.0
 33
0.0
 40
0.0
 40
0.0
 40
0.0
 40
0.0
 40
1.0
 40
1.0
 40
1.0
 40
2.0
 40
2.0
 40
2.0
 40
3.0
 40
3.0
 40
3.0
 40
4.0
 40
4.0
 40
4.0
 40
4.0
 10
4.531944274902344
 20
3.654166751437717
 30
0.0
 10
4.618622250027126
 20
3.654166751437717
 30
0.0
 10
4.688888549804688
 20
3.58390023973253
 30
0.0
 10
4.688888549804688
 20
3.497222264607747
 30
0.0
 10
4.688888549804688
 20
3.410544289482964
 30
0.0
 10
4.618622250027126
 20
3.340277777777778
 30
0.0
 10
4.531944274902344
 20
3.340277777777778
 30
0.0
 10
4.44526629977756
 20
3.340277777777778
 30
0.0
 10
4.375
 20
3.410544289482964
 30
0.0
 10
4.375
 20
3.497222264607747
 30
0.0
 10
4.375
 20
3.58390023973253
 30
0.0
 10
4.44526629977756
 20
3.654166751437717
 30
0.0
 10
4.531944274902344
 20
3.654166751437717
 30
0.0
  0
HATCH
  5
B7
330
A8
100
AcDbEntity
  8
Calque 1
 62
     7
420
 15921906
100
AcDbHatch
 10
0.0
 20
0.0
 30
0.0
210
0.0
220
0.0
230
1.0
  2
SOLID
 70
     1
 71
     0
 91
        1
 92
        1
 93
        1
 72
     4
 94
        3
 73
     0
 74
     1
 95
       17
 96
       13
 40
0.0
 40
0.0
 40
0.0
 40
0.0
 40
1.0
 40
1.0
 40
1.0
 40
2.0
 40
2.0
 40
2.0
 40
3.0
 40
3.0
 40
3.0
 40
4.0
 40
4.0
 40
4.0
 40
4.0
 10
4.531944274902344
 20
3.654166751437717
 10
4.618622250027126
 20
3.654166751437717
 10
4.688888549804688
 20
3.58390023973253
 10
4.688888549804688
 20
3.497222264607747
 10
4.688888549804688
 20
3.410544289482964
 10
4.618622250027126
 20
3.340277777777778
 10
4.531944274902344
 20
3.340277777777778
 10
4.44526629977756
 20
3.340277777777778
 10
4.375
 20
3.410544289482964
 10
4.375
 20
3.497222264607747
 10
4.375
 20
3.58390023973253
 10
4.44526629977756
 20
3.654166751437717
 10
4.531944274902344
 20
3.654166751437717
 97
        0
 97
        0
 75
     2
 76
     1
 98
        0
  0
ENDBLK
  5
AB
330
A8
100
AcDbEntity
  8
0
100
AcDbBlockEnd
  0
ENDSEC
  0
SECTION
  2
ENTITIES
  0
INSERT
  5
42
330
1F
100
AcDbEntity
  8
Calque 1
100
AcDbBlockReference
  2
block 2
 10
0.0
 20
0.0
 30
0.0
  0
ENDSEC
  0
SECTION
  2
OBJECTS
  0
DICTIONARY
  5
C
330
0
100
AcDbDictionary
281
     1
  3
ACAD_GROUP
350
D
  3
ACAD_LAYOUT
350
1A
  3
ACAD_MATERIAL
350
3B
  3
ACAD_MLEADERSTYLE
350
B9
  3
ACAD_MLINESTYLE
350
17
  3
ACAD_PLOTSETTINGS
350
19
  3
ACAD_PLOTSTYLENAME
350
E
  3
ACAD_TABLESTYLE
350
B8
  3
ACAD_VISUALSTYLE
350
2A
  0
SUN
  5
3F
330
29
100
AcDbSun
 90
        1
290
     0
 63
     7
421
 16777215
 40
1.0
291
     1
 91
  2455826
 92
 54000000
292
     0
 70
     2
 71
   256
280
     1
  0
DICTIONARY
  5
D
102
{ACAD_REACTORS
330
C
102
}
330
C
100
AcDbDictionary
281
     1
  0
DICTIONARY
  5
1A
102
{ACAD_REACTORS
330
C
102
}
330
C
100
AcDbDictionary
281
     1
  3
Layout1
350
1E
  3
Layout2
350
26
  3
Model
350
22
  0
DICTIONARY
  5
3B
102
{ACAD_REACTORS
330
C
102
}
330
C
100
AcDbDictionary
281
     1
  3
ByBlock
350
3D
  3
ByLayer
350
3C
  3
Global
350
3E
  0
DICTIONARY
  5
B9
102
{ACAD_REACTORS
330
C
102
}
330
C
100
AcDbDictionary
281
     1
  0
DICTIONARY
  5
17
102
{ACAD_REACTORS
330
C
102
}
330
C
100
AcDbDictionary
281
     1
  3
Standard
350
18
  0
DICTIONARY
  5
19
102
{ACAD_REACTORS
330
C
102
}
330
C
100
AcDbDictionary
281
     1
  0
ACDBDICTIONARYWDFLT
  5
E
102
{ACAD_REACTORS
330
C
102
}
330
C
100
AcDbDictionary
281
     1
  3
Normal
350
F
100
AcDbDictionaryWithDefault
340
F
  0
DICTIONARY
  5
B8
102
{ACAD_REACTORS
330
C
102
}
330
C
100
AcDbDictionary
281
     1
  0
DICTIONARY
  5
2A
102
{ACAD_REACTORS
330
C
102
}
330
C
100
AcDbDictionary
281
     1
  3
2dWireframe
350
2F
  3
3D Hidden
350
31
  3
3dWireframe
350
30
  3
Basic
350
32
  3
Brighten
350
36
  3
ColorChange
350
3A
  3
Conceptual
350
34
  3
Dim
350
35
  3
Facepattern
350
39
  3
Flat
350
2B
  3
FlatWithEdges
350
2C
  3
Gouraud
350
2D
  3
GouraudWithEdges
350
2E
  3
Linepattern
350
38
  3
Realistic
350
33
  3
Thicken
350
37
  0
LAYOUT
  5
1E
102
{ACAD_REACTORS
330
1A
102
}
330
1A
100
AcDbPlotSettings
  1

  2
none_device
  4

  6

 40
0.0
 41
0.0
 42
0.0
 43
0.0
 44
0.0
 45
0.0
 46
0.0
 47
0.0
 48
0.0
 49
0.0
140
0.0
141
0.0
142
1.0
143
1.0
 70
   688
 72
     0
 73
     0
 74
     5
  7

 75
    16
 76
     0
 77
     2
 78
   300
147
1.0
148
0.0
149
0.0
100
AcDbLayout
  1
Layout1
 70
     1
 71
     1
 10
0.0
 20
0.0
 11
12.0
 21
9.0
 12
0.0
 22
0.0
 32
0.0
 14
1.000000000000000E+20
 24
1.000000000000000E+20
 34
1.000000000000000E+20
 15
-1.000000000000000E+20
 25
-1.000000000000000E+20
 35
-1.000000000000000E+20
146
0.0
 13
0.0
 23
0.0
 33
0.0
 16
1.0
 26
0.0
 36
0.0
 17
0.0
 27
1.0
 37
0.0
 76
     0
330
1B
  0
LAYOUT
  5
26
102
{ACAD_REACTORS
330
1A
102
}
330
1A
100
AcDbPlotSettings
  1

  2
none_device
  4

  6

 40
0.0
 41
0.0
 42
0.0
 43
0.0
 44
0.0
 45
0.0
 46
0.0
 47
0.0
 48
0.0
 49
0.0
140
0.0
141
0.0
142
1.0
143
1.0
 70
   688
 72
     0
 73
     0
 74
     5
  7

 75
    16
 76
     0
 77
     2
 78
   300
147
1.0
148
0.0
149
0.0
100
AcDbLayout
  1
Layout2
 70
     1
 71
     2
 10
0.0
 20
0.0
 11
0.0
 21
0.0
 12
0.0
 22
0.0
 32
0.0
 14
0.0
 24
0.0
 34
0.0
 15
0.0
 25
0.0
 35
0.0
146
0.0
 13
0.0
 23
0.0
 33
0.0
 16
1.0
 26
0.0
 36
0.0
 17
0.0
 27
1.0
 37
0.0
 76
     0
330
23
  0
LAYOUT
  5
22
102
{ACAD_REACTORS
330
1A
102
}
330
1A
100
AcDbPlotSettings
  1

  2
none_device
  4

  6

 40
0.0
 41
0.0
 42
0.0
 43
0.0
 44
0.0
 45
0.0
 46
0.0
 47
0.0
 48
0.0
 49
0.0
140
0.0
141
0.0
142
1.0
143
1.0
 70
  1712
 72
     0
 73
     0
 74
     0
  7

 75
     0
 76
     0
 77
     2
 78
   300
147
1.0
148
0.0
149
0.0
100
AcDbLayout
  1
Model
 70
     1
 71
     0
 10
0.0
 20
0.0
 11
12.0
 21
9.0
 12
0.0
 22
0.0
 32
0.0
 14
1.000000000000000E+20
 24
1.000000000000000E+20
 34
1.000000000000000E+20
 15
-1.000000000000000E+20
 25
-1.000000000000000E+20
 35
-1.000000000000000E+20
146
0.0
 13
0.0
 23
0.0
 33
0.0
 16
1.0
 26
0.0
 36
0.0
 17
0.0
 27
1.0
 37
0.0
 76
     0
330
1F
331
29
  0
MATERIAL
  5
3D
102
{ACAD_REACTORS
330
3B
102
}
330
3B
100
AcDbMaterial
  1
ByBlock
 72
     1
 94
      127
  0
MATERIAL
  5
3C
102
{ACAD_REACTORS
330
3B
102
}
330
3B
100
AcDbMaterial
  1
ByLayer
 72
     1
 94
      127
  0
MATERIAL
  5
3E
102
{ACAD_REACTORS
330
3B
102
}
330
3B
100
AcDbMaterial
  1
Global
 72
     1
 94
      127
  0
MLINESTYLE
  5
18
102
{ACAD_REACTORS
330
17
102
}
330
17
100
AcDbMlineStyle
  2
Standard
 70
     0
  3

 62
   256
 51
90.0
 52
90.0
 71
     2
 49
0.5
 62
   256
  6
BYLAYER
 49
-0.5
 62
   256
  6
BYLAYER
  0
ACDBPLACEHOLDER
  5
F
102
{ACAD_REACTORS
330
E
102
}
330
E
  0
VISUALSTYLE
  5
2F
102
{ACAD_REACTORS
330
2A
102
}
330
2A
100
AcDbVisualStyle
  2
2dWireframe
 70
     4
177
     2
291
     0
 71
     0
176
     1
 72
     2
176
     1
 73
     0
176
     1
 90
        0
176
     1
 40
-0.6
176
     1
 41
-30.0
176
     1
 62
     5
 63
     7
421
 16777215
176
     1
 74
     1
176
     1
 91
        4
176
     1
 64
     7
176
     1
 65
   257
176
     1
 75
     1
176
     1
175
     1
176
     1
 42
1.0
176
     1
 92
        0
176
     1
 66
   257
176
     1
 43
1.0
176
     1
 76
     1
176
     1
 77
     6
176
     1
 78
     2
176
     1
 67
     7
176
     1
 79
     5
176
     1
170
     0
176
     1
171
     0
176
     1
290
     0
176
     1
 93
        1
176
     1
 44
0.0
176
     1
173
     0
176
     1
  0
VISUALSTYLE
  5
31
102
{ACAD_REACTORS
330
2A
102
}
330
2A
100
AcDbVisualStyle
  2
3D Hidden
 70
     6
177
     2
291
     0
 71
     1
176
     1
 72
     2
176
     1
 73
     2
176
     1
 90
        0
176
     1
 40
-0.6
176
     1
 41
-30.0
176
     1
 62
     5
 63
     7
421
 16777215
176
     1
 74
     2
176
     1
 91
        2
176
     1
 64
     7
176
     1
 65
   257
176
     1
 75
     2
176
     1
175
     1
176
     1
 42
40.0
176
     1
 92
        0
176
     1
 66
   257
176
     1
 43
1.0
176
     1
 76
     1
176
     1
 77
     6
176
     1
 78
     2
176
     1
 67
     7
176
     1
 79
     3
176
     1
170
     0
176
     1
171
     0
176
     1
290
     0
176
     1
 93
        1
176
     1
 44
0.0
176
     1
173
     0
176
     1
  0
VISUALSTYLE
  5
30
102
{ACAD_REACTORS
330
2A
102
}
330
2A
100
AcDbVisualStyle
  2
3dWireframe
 70
     5
177
     2
291
     0
 71
     0
176
     1
 72
     2
176
     1
 73
     0
176
     1
 90
        0
176
     1
 40
-0.6
176
     1
 41
-30.0
176
     1
 62
     5
 63
     7
421
 16777215
176
     1
 74
     1
176
     1
 91
        4
176
     1
 64
     7
176
     1
 65
   257
176
     1
 75
     1
176
     1
175
     1
176
     1
 42
1.0
176
     1
 92
        0
176
     1
 66
   257
176
     1
 43
1.0
176
     1
 76
     1
176
     1
 77
     6
176
     1
 78
     2
176
     1
 67
     7
176
     1
 79
     5
176
     1
170
     0
176
     1
171
     0
176
     1
290
     0
176
     1
 93
        1
176
     1
 44
0.0
176
     1
173
     0
176
     1
  0
VISUALSTYLE
  5
32
102
{ACAD_REACTORS
330
2A
102
}
330
2A
100
AcDbVisualStyle
  2
Basic
 70
     7
177
     2
291
     1
 71
     1
176
     1
 72
     0
176
     1
 73
     1
176
     1
 90
        0
176
     1
 40
-0.6
176
     1
 41
-30.0
176
     1
 62
     5
 63
     7
421
 16777215
176
     1
 74
     0
176
     1
 91
        4
176
     1
 64
     7
176
     1
 65
   257
176
     1
 75
     1
176
     1
175
     1
176
     1
 42
1.0
176
     1
 92
        8
176
     1
 66
     7
176
     1
 43
1.0
176
     1
 76
     1
176
     1
 77
     6
176
     1
 78
     2
176
     1
 67
     7
176
     1
 79
     5
176
     1
170
     0
176
     1
171
     0
176
     1
290
     0
176
     1
 93
        1
176
     1
 44
0.0
176
     1
173
     0
176
     1
  0
VISUALSTYLE
  5
36
102
{ACAD_REACTORS
330
2A
102
}
330
2A
100
AcDbVisualStyle
  2
Brighten
 70
    12
177
     2
291
     1
 71
     2
176
     1
 72
     2
176
     1
 73
     0
176
     1
 90
        0
176
     1
 40
-0.6
176
     1
 41
-30.0
176
     1
 62
     5
 63
     7
421
 16777215
176
     1
 74
     1
176
     1
 91
        4
176
     1
 64
     7
176
     1
 65
   257
176
     1
 75
     1
176
     1
175
     1
176
     1
 42
1.0
176
     1
 92
        8
176
     1
 66
     7
176
     1
 43
1.0
176
     1
 76
     1
176
     1
 77
     6
176
     1
 78
     2
176
     1
 67
     7
176
     1
 79
     5
176
     1
170
     0
176
     1
171
     0
176
     1
290
     0
176
     1
 93
        1
176
     1
 44
50.0
176
     1
173
     0
176
     1
  0
VISUALSTYLE
  5
3A
102
{ACAD_REACTORS
330
2A
102
}
330
2A
100
AcDbVisualStyle
  2
ColorChange
 70
    16
177
     2
291
     1
 71
     2
176
     1
 72
     2
176
     1
 73
     3
176
     1
 90
        0
176
     1
 40
-0.6
176
     1
 41
-30.0
176
     1
 62
     5
 63
     8
421
  8421504
176
     1
 74
     1
176
     1
 91
        4
176
     1
 64
     7
176
     1
 65
   257
176
     1
 75
     1
176
     1
175
     1
176
     1
 42
1.0
176
     1
 92
        8
176
     1
 66
     8
424
  8421504
176
     1
 43
1.0
176
     1
 76
     1
176
     1
 77
     6
176
     1
 78
     2
176
     1
 67
     7
176
     1
 79
     5
176
     1
170
     0
176
     1
171
     0
176
     1
290
     0
176
     1
 93
        1
176
     1
 44
0.0
176
     1
173
     0
176
     1
  0
VISUALSTYLE
  5
34
102
{ACAD_REACTORS
330
2A
102
}
330
2A
100
AcDbVisualStyle
  2
Conceptual
 70
     9
177
     2
291
     0
 71
     3
176
     1
 72
     2
176
     1
 73
     0
176
     1
 90
        0
176
     1
 40
-0.6
176
     1
 41
-30.0
176
     1
 62
     5
 63
     7
421
 16777215
176
     1
 74
     2
176
     1
 91
        2
176
     1
 64
     7
176
     1
 65
   257
176
     1
 75
     1
176
     1
175
     1
176
     1
 42
40.0
176
     1
 92
        8
176
     1
 66
     7
176
     1
 43
1.0
176
     1
 76
     1
176
     1
 77
     6
176
     1
 78
     2
176
     1
 67
     7
176
     1
 79
     3
176
     1
170
     0
176
     1
171
     0
176
     1
290
     0
176
     1
 93
        1
176
     1
 44
0.0
176
     1
173
     0
176
     1
  0
VISUALSTYLE
  5
35
102
{ACAD_REACTORS
330
2A
102
}
330
2A
100
AcDbVisualStyle
  2
Dim
 70
    11
177
     2
291
     1
 71
     2
176
     1
 72
     2
176
     1
 73
     0
176
     1
 90
        0
176
     1
 40
-0.6
176
     1
 41
-30.0
176
     1
 62
     5
 63
     7
421
 16777215
176
     1
 74
     1
176
     1
 91
        4
176
     1
 64
     7
176
     1
 65
   257
176
     1
 75
     1
176
     1
175
     1
176
     1
 42
1.0
176
     1
 92
        8
176
     1
 66
     7
176
     1
 43
1.0
176
     1
 76
     1
176
     1
 77
     6
176
     1
 78
     2
176
     1
 67
     7
176
     1
 79
     5
176
     1
170
     0
176
     1
171
     0
176
     1
290
     0
176
     1
 93
        1
176
     1
 44
-50.0
176
     1
173
     0
176
     1
  0
VISUALSTYLE
  5
39
102
{ACAD_REACTORS
330
2A
102
}
330
2A
100
AcDbVisualStyle
  2
Facepattern
 70
    15
177
     2
291
     1
 71
     2
176
     1
 72
     2
176
     1
 73
     0
176
     1
 90
        0
176
     1
 40
-0.6
176
     1
 41
-30.0
176
     1
 62
     5
 63
     7
421
 16777215
176
     1
 74
     1
176
     1
 91
        4
176
     1
 64
     7
176
     1
 65
   257
176
     1
 75
     1
176
     1
175
     1
176
     1
 42
1.0
176
     1
 92
        8
176
     1
 66
     7
176
     1
 43
1.0
176
     1
 76
     1
176
     1
 77
     6
176
     1
 78
     2
176
     1
 67
     7
176
     1
 79
     5
176
     1
170
     0
176
     1
171
     0
176
     1
290
     0
176
     1
 93
        1
176
     1
 44
0.0
176
     1
173
     0
176
     1
  0
VISUALSTYLE
  5
2B
102
{ACAD_REACTORS
330
2A
102
}
330
2A
100
AcDbVisualStyle
  2
Flat
 70
     0
177
     2
291
     1
 71
     2
176
     1
 72
     1
176
     1
 73
     1
176
     1
 90
        2
176
     1
 40
-0.6
176
     1
 41
30.0
176
     1
 62
     5
 63
     7
421
 16777215
176
     1
 74
     0
176
     1
 91
        4
176
     1
 64
     7
176
     1
 65
   257
176
     1
 75
     1
176
     1
175
     1
176
     1
 42
1.0
176
     1
 92
        8
176
     1
 66
     7
176
     1
 43
1.0
176
     1
 76
     1
176
     1
 77
     6
176
     1
 78
     2
176
     1
 67
     7
176
     1
 79
     5
176
     1
170
     0
176
     1
171
     0
176
     1
290
     0
176
     1
 93
       13
176
     1
 44
0.0
176
     1
173
     0
176
     1
  0
VISUALSTYLE
  5
2C
102
{ACAD_REACTORS
330
2A
102
}
330
2A
100
AcDbVisualStyle
  2
FlatWithEdges
 70
     1
177
     2
291
     1
 71
     2
176
     1
 72
     1
176
     1
 73
     1
176
     1
 90
        2
176
     1
 40
-0.6
176
     1
 41
30.0
176
     1
 62
     5
 63
     7
421
 16777215
176
     1
 74
     1
176
     1
 91
        4
176
     1
 64
     7
176
     1
 65
   257
176
     1
 75
     1
176
     1
175
     1
176
     1
 42
1.0
176
     1
 92
        0
176
     1
 66
   257
176
     1
 43
1.0
176
     1
 76
     1
176
     1
 77
     6
176
     1
 78
     2
176
     1
 67
     7
176
     1
 79
     5
176
     1
170
     0
176
     1
171
     0
176
     1
290
     0
176
     1
 93
       13
176
     1
 44
0.0
176
     1
173
     0
176
     1
  0
VISUALSTYLE
  5
2D
102
{ACAD_REACTORS
330
2A
102
}
330
2A
100
AcDbVisualStyle
  2
Gouraud
 70
     2
177
     2
291
     1
 71
     2
176
     1
 72
     2
176
     1
 73
     1
176
     1
 90
        2
176
     1
 40
-0.6
176
     1
 41
30.0
176
     1
 62
     5
 63
     7
421
 16777215
176
     1
 74
     0
176
     1
 91
        4
176
     1
 64
     7
176
     1
 65
   257
176
     1
 75
     1
176
     1
175
     1
176
     1
 42
1.0
176
     1
 92
        0
176
     1
 66
     7
176
     1
 43
1.0
176
     1
 76
     1
176
     1
 77
     6
176
     1
 78
     2
176
     1
 67
     7
176
     1
 79
     5
176
     1
170
     0
176
     1
171
     0
176
     1
290
     0
176
     1
 93
       13
176
     1
 44
0.0
176
     1
173
     0
176
     1
  0
VISUALSTYLE
  5
2E
102
{ACAD_REACTORS
330
2A
102
}
330
2A
100
AcDbVisualStyle
  2
GouraudWithEdges
 70
     3
177
     2
291
     1
 71
     2
176
     1
 72
     2
176
     1
 73
     1
176
     1
 90
        2
176
     1
 40
-0.6
176
     1
 41
30.0
176
     1
 62
     5
 63
     7
421
 16777215
176
     1
 74
     1
176
     1
 91
        4
176
     1
 64
     7
176
     1
 65
   257
176
     1
 75
     1
176
     1
175
     1
176
     1
 42
1.0
176
     1
 92
        0
176
     1
 66
   257
176
     1
 43
1.0
176
     1
 76
     1
176
     1
 77
     6
176
     1
 78
     2
176
     1
 67
     7
176
     1
 79
     5
176
     1
170
     0
176
     1
171
     0
176
     1
290
     0
176
     1
 93
       13
176
     1
 44
0.0
176
     1
173
     0
176
     1
  0
VISUALSTYLE
  5
38
102
{ACAD_REACTORS
330
2A
102
}
330
2A
100
AcDbVisualStyle
  2
Linepattern
 70
    14
177
     2
291
     1
 71
     2
176
     1
 72
     2
176
     1
 73
     0
176
     1
 90
        0
176
     1
 40
-0.6
176
     1
 41
-30.0
176
     1
 62
     5
 63
     7
421
 16777215
176
     1
 74
     1
176
     1
 91
        4
176
     1
 64
     7
176
     1
 65
   257
176
     1
 75
     7
176
     1
175
     7
176
     1
 42
1.0
176
     1
 92
        8
176
     1
 66
     7
176
     1
 43
1.0
176
     1
 76
     1
176
     1
 77
     6
176
     1
 78
     2
176
     1
 67
     7
176
     1
 79
     5
176
     1
170
     0
176
     1
171
     0
176
     1
290
     0
176
     1
 93
        1
176
     1
 44
0.0
176
     1
173
     0
176
     1
  0
VISUALSTYLE
  5
33
102
{ACAD_REACTORS
330
2A
102
}
330
2A
100
AcDbVisualStyle
  2
Realistic
 70
     8
177
     2
291
     0
 71
     2
176
     1
 72
     2
176
     1
 73
     0
176
     1
 90
        0
176
     1
 40
-0.6
176
     1
 41
-30.0
176
     1
 62
     5
 63
     7
421
 16777215
176
     1
 74
     1
176
     1
 91
        0
176
     1
 64
     7
176
     1
 65
   257
176
     1
 75
     1
176
     1
175
     1
176
     1
 42
1.0
176
     1
 92
        8
176
     1
 66
     8
424
  7895160
176
     1
 43
1.0
176
     1
 76
     1
176
     1
 77
     6
176
     1
 78
     2
176
     1
 67
     7
176
     1
 79
     5
176
     1
170
     0
176
     1
171
     0
176
     1
290
     0
176
     1
 93
       13
176
     1
 44
0.0
176
     1
173
     0
176
     1
  0
VISUALSTYLE
  5
37
102
{ACAD_REACTORS
330
2A
102
}
330
2A
100
AcDbVisualStyle
  2
Thicken
 70
    13
177
     2
291
     1
 71
     2
176
     1
 72
     2
176
     1
 73
     0
176
     1
 90
        0
176
     1
 40
-0.6
176
     1
 41
-30.0
176
     1
 62
     5
 63
     7
421
 16777215
176
     1
 74
     1
176
     1
 91
        4
176
     1
 64
     7
176
     1
 65
   257
176
     1
 75
     1
176
     1
175
     1
176
     1
 42
1.0
176
     1
 92
       12
176
     1
 66
     7
176
     1
 43
1.0
176
     1
 76
     1
176
     1
 77
     6
176
     1
 78
     2
176
     1
 67
     7
176
     1
 79
     5
176
     1
170
     0
176
     1
171
     0
176
     1
290
     0
176
     1
 93
        1
176
     1
 44
0.0
176
     1
173
     0
176
     1
  0
ENDSEC
  0
EOF
